<?xml version="1.0" encoding="utf-8"?>
<!-- Generator: Adobe Illustrator 24.3.0, SVG Export Plug-In . SVG Version: 6.00 Build 0)  -->
<svg version="1.1" id="Layer_1" xmlns="http://www.w3.org/2000/svg" xmlns:xlink="http://www.w3.org/1999/xlink" x="0px" y="0px"
	 viewBox="0 0 240.4 226.4" style="enable-background:new 0 0 240.4 226.4;" xml:space="preserve">
<style type="text/css">
	.st0{fill:#14110E;}
	.st1{fill:#D8D8D8;}
	.st2{fill:#E2E2E2;}
	.st3{fill:#F78C6B;}
	.st4{fill:#FCD41C;}
	.st5{fill:#25314D;}
	.st6{fill:#FDD41C;}
	.st7{fill:#425375;}
	.st8{fill:#DB583C;}
	.st9{fill:#E3A90A;}
	.st10{fill:#784A26;}
	.st11{fill:#AA7C4F;}
	.st12{fill:#F8F8F8;}
	.st13{fill:#4A80BA;}
	.st14{fill:#334160;}
	.st15{fill:#F7E47F;}
	.st16{fill:#234D89;}
	.st17{fill:#CA0000;}
	.st18{fill:#F5A58B;}
	.st19{fill:#677797;}
	.st20{fill:#EDBE13;}
	.st21{fill:#805823;}
	.st22{fill:#8AB8E9;}
	.st23{fill:#B95B19;}
	.st24{fill:#E77354;}
	.st25{fill:#4E2D0D;}
	.st26{fill:#3666A2;}
	.st27{fill:#C69A6F;}
	.st28{fill:#FEFEFE;}
</style>
<g>
	<path class="st0" d="M90.7,220.3c-2.6,0.4-5.2,1-7.9,1.3c-5.9,0.6-11.9,0.1-17.7-1.1c-3.4-1.1-6.7-2.1-10.1-3.2
		c-0.9-0.3-1.7-1.1-2.6-1.6c0-0.1,0-0.2-0.1-0.3c0-0.5,0-1,0-1.4c0-0.1,0-0.2,0-0.2c0-0.4,0-0.8,0-1.2c0.1-0.4,0.3-0.9,0.4-1.3
		c0.1-0.5,0.2-0.9,0.3-1.4c0.8-2.1,1.4-4.3,3.3-5.9c-0.1-0.1-0.1-0.1-0.2-0.2c-2.8-1.1-2.7-1.1-1.6-3.9c1.9-5,3.8-10,5.4-15.1
		c2-6.9,1.4-13.9-0.1-20.8c-0.7-3.2-1.7-6.4-2.6-9.6c-0.2-0.6-0.6-1.1-1-1.6c-4.2-3.9-6.7-8.6-7.3-14.3c-0.1-0.5-0.4-0.9-0.6-1.4
		c-0.2,0-0.4,0.1-0.6,0.1c-0.5,2.5-1,5.1-1.5,7.6c-0.1,0.3-0.1,0.6-0.1,0.8c-0.5,1.9-0.7,3.7,1.6,4.7c0.7,0.3,1.1,1.2,1.6,1.7
		c0.6,0.6,1.2,1.2,2,1.7c1.6,0.9,2.1,1.7,1.8,3.1c-0.2,1.2-1.5,2.3-3,2.3c-1.1,0-2.3-0.3-3.2-0.8c-2.1-1.2-4-1-5.8,0.4
		c-1.8,1.4-3.4,3.1-5,4.7c-0.9,0.8-1.7,1.7-2.8,2.5c0,0.4,0,0.9,0,1.3c-0.1,1.1-0.4,2.1-1.5,2.5c-1.2,0.5-2.4,0.4-3.4-0.4
		c-1.3-1-1.8-2.3-1.9-3.8c-0.1-1.7,0-3.4,0-5.3c-1,0.7-1.9,1.4-2.9,2c-0.7,0.4-1.3,0.9-2.1,1.1c-1.9,0.7-3.6-0.6-3.3-2.7
		c0.1-0.8,0.5-1.6,1-2.2c0.6-0.8,1.3-1.6,2.2-2.2c2.3-1.7,3.8-3.9,5.3-6.2c0.2-0.4,0.2-0.9,0.2-1.4c0.2-7.2,0.1-14.4,0.5-21.5
		c0.4-8.1,3.6-18.3,7.4-25.4c-1.3-1-0.8-2.1-0.1-3.2c3.3-5.2,7.9-8.6,14-10.1c0.4-0.1,1-0.4,1.2-0.8c2.1-4.6,5-8.5,9.2-11.5
		c-1.3-2.7-1.3-5.5-0.5-8.4c0.1-0.2,0.1-0.4,0.2-0.6c0.1-0.1,0.1-0.3,0.2-0.4c0,0-0.1-0.1-0.1-0.1c-0.1,0.1-0.2,0.2-0.3,0.3
		c-0.1,0.1-0.1,0.2-0.2,0.3c-0.4,0.5-0.8,1-1.2,1.5c-1.7-2,0-7.3,3.4-11.2c-1.8,0.1-3.5,0.2-5.5,0.3c0.9-2.5,2.7-3.8,5.2-4.4
		c0-0.1,0-0.3,0-0.4c-1.6-0.2-3.1-0.4-4.7-0.6c0.5-3.3,6.2-4,10.5-1.2c1.3-0.9,2.6-1.8,3.9-2.8c-1.2-0.2-2.3-0.4-3.8-0.7
		c2.6-2.4,5.3-3,8.3-2.3c0.1,0,0.3,0,0.4,0c-0.1-0.1-0.1-0.1-0.2-0.2c-0.3-0.4-0.7-0.8-1.1-1.3c1.7-0.8,3.1-0.2,4.5,0.3
		c1.4-2.5,3.1-4.6,6.3-5.1c-0.4,1.6-0.7,3.1-1.1,4.7c2.3-1.1,4.3-1.8,6.7-0.8c-1.4,1.2-2.6,2.2-4.1,3.5c1.7,0.2,3,0.4,4.3,0.6
		c0.3,0,0.6-0.2,0.9-0.3c1.2-0.6,2.5-0.8,3.8-0.4c0.3,0.1,0.8,0.2,0.9,0.5c0.6,1.5,2.1,1.5,3.2,2.2c1.8,1.1,2.5,2.7,2.4,4.8
		c0,0.1,0,0.2,0,0.3c0.1,0,0.2,0,0.3-0.1c2-0.6,3.3-0.3,4.3,1c1.1,1.4,1,3-0.2,4.6c-0.1,0.1-0.1,0.3-0.3,0.4
		c1.6,0.3,3.1,0.6,4.6,0.9c2.8-3.7,4-15.8,2.6-24.6c-1.6,1.5-3.2,3-4.8,4.5c0.2,2.2-0.3,2.7-2.8,2.7c0.1,0.7,0.4,1.4,0.3,2.1
		c0,0.5-0.4,1-0.7,1.5c-0.4-0.3-1.2-0.6-1.3-1c-0.2-0.9-0.2-1.9-0.3-2.8c-0.1-0.4-0.2-0.9-0.5-1.3c-0.4-0.6-1-1.1-1.4-1.8
		c-0.6-1.3,0-2.4,1.5-2.7c0.4-0.1,0.9-0.3,1.1-0.6c1.6-2.7,3.2-5.4,4.9-8.3c-0.5-1.2-1.1-2.8-0.1-4.5c0.1-0.2-0.1-0.7-0.2-1
		c-0.7-1.7-1.1-3.6-0.5-5.4c0.5-1.4,1.1-2.8,1.5-4.3c0.2-1.1,1.3-1.7,2.4-2c0.7-0.2,1.5-0.3,2.3-0.4c0.8-2.1,1.9-3.1,5.2-2.3
		c0.3,0.1,0.8-0.1,1.1-0.2c0.8-0.3,1.6-0.9,2.5-0.9c3.2,0,6.3,2.4,7.4,5.4c0.4,1.1,0.3,2.2-0.3,3.2c-0.7,1.1-1.5,2.1-2,3.2
		c-0.6,1.3,0.8,2.2,0.7,3.5c-0.1,1.5,0.1,3,0.2,4.5c0,0.4,0.1,0.9,0.2,1.3c2.4,6,3.6,12.3,4.3,18.7c1.4,12.3-1.3,23.7-7.5,34.4
		c1,0.9,0.9,1.9,0.3,2.9c-3.5,6.4-8.6,11-15.5,13.5c-0.4,0.1-0.8,0.2-1.3,0.4c1.4,2.7,1.9,5.6,2,8.6c0,0.5,0.4,1,0.8,1.3
		c4.9,3.9,8.4,8.8,10.7,14.6c1.1,2.8,1.9,5.6,1.8,8.6c0,1.5-0.4,2.7-1.8,3.6c-0.3,0.2-0.5,0.6-0.6,1c-1.3,5.6-3.9,10.5-8,14.6
		c-0.5,0.5-0.4,0.9-0.2,1.5c2.6,8,4.1,16.1,3.8,24.5c-0.2,6.3-1.7,12.4-3.8,18.3c-0.4,1.2-0.7,2.4-1,3.7c-0.1,0.5-0.3,1-0.4,1.4
		c3.2,0.9,6.6,1.7,9.8,2.9c2.9,1.1,5.8,2.7,8.5,4.2c3,1.7,2.4,4.5,1.2,7.1c-0.1,0.3-0.5,0.5-0.8,0.6c-1.1,0.3-2.2,0.5-3.3,0.7
		c-1,0.1-1.9,0.1-2.9,0.2c-0.3,0-0.6,0-0.9,0.1c-3.4,0-6.9,0-10.3,0c-0.2,0-0.3,0-0.5,0c-0.7-0.1-1.4-0.1-2.2-0.2
		c-0.2,0-0.3,0-0.5-0.1c-0.1,0-0.2,0-0.3,0c-0.4,0-0.8,0-1.2,0c-0.2-0.1-0.5-0.2-0.7-0.2c-0.4,0-0.8,0-1.2,0
		c-0.2-0.1-0.4-0.2-0.5-0.2c-0.3,0-0.6,0-0.9,0c-0.2-0.1-0.4-0.2-0.5-0.3c-0.2,0-0.4,0-0.7,0c-0.2-0.1-0.3-0.2-0.5-0.3
		c-0.2,0-0.5,0-0.7,0c-0.2-0.1-0.3-0.2-0.5-0.3c-0.7-0.2-1.5-0.4-2.2-0.7c-2.1-0.7-4.1-1.4-6.1-2.2c-2.7-1.2-2.7-1.2-2.4-4
		c0.8-2.8,1.8-5.4,3.6-7.7c-2-1.1-2-1.1-1.2-3.2c0.7-2,1.4-4,2-6c2-6.9,3.2-13.9,1.5-21c-0.8-3.2-1.8-6.4-2.7-9.7
		c-5.2,1.8-10.3,2.5-15.6,2.2c0,0.5,0.1,0.9,0.1,1.3c0.5,5.8,0.7,11.6-0.3,17.4c-1.2,7.3-3.2,14.4-6.6,21c-0.5,1-1,2-2.2,2.2
		c3.6,1.3,7.3,2.6,10.9,3.9c0.7,0.3,1.3,0.7,2,1c0.1,0.1,0.3,0.2,0.4,0.2c0.4,0.2,0.8,0.5,1.3,0.7c0.1,0.1,0.3,0.2,0.4,0.2
		c0.3,0.2,0.5,0.3,0.8,0.5l0,0c0.2,0.2,0.5,0.3,0.7,0.5l0,0c0.2,0.2,0.5,0.4,0.7,0.5C91.9,214.8,91.8,217.9,90.7,220.3z M19.7,162.5
		c0.1,0.1,0.2,0.2,0.3,0.3c0.8-0.1,1.7,0,2.4-0.4c1.2-0.6,2.1-1.5,3.3-2.1c1.1-0.6,1.6-1.5,1.7-2.6c0.2-0.2,0.4-0.5,0.5-0.7
		c-0.2,1.5-0.4,2.9-0.6,4.4c-0.2,2.1-0.2,4.2,0.6,6.3c0.7,1.6,2.2,2.3,3.7,1.9c1.1-0.3,1.5-1.5,1.2-3.2c-0.7-0.2-1.4-0.4-2-0.6
		c-1.8-3.6-0.2-8.1,3.3-8.5c-0.7,0.6-1.2,1-1.6,1.5c-1.1,1.2-2.1,2.4-1.9,4.2c-0.1,1.2,0.3,2.1,1.4,2.6c1.1,0.5,2,0,2.8-0.8
		c0.5-0.5,0.9-1.1,1.4-1.7c1.8-2.2,3.8-4.3,6.5-5.4c1.4-0.6,2.8-0.6,4.1,0.2c0.8,0.4,1.6,0.8,2.4,1c1.6,0.4,2.9-0.3,3.4-1.6
		c0-0.1,0-0.2,0.1-0.3c0.3-1-0.2-1.5-1-2c-0.8-0.5-1.6-1.1-2.4-1.8c-1.1-0.9-2.1-2-3.2-2.9c-0.6-0.5-0.8-0.9-0.8-1.7
		c1.1-10.7,4.6-20.5,9.7-29.9c0.4-0.8,0.8-1.5,1.2-2.3l0,0c0.2-0.2,0.4-0.5,0.6-0.7c0.9-1.3,1.8-2.6,2.7-3.8
		c0.6-0.4,0.7-0.9,0.3-1.5c-0.3-0.5-0.5-1-0.8-1.5c-4.1-6.3-13.4-10.3-20.8-8.9c-0.2,0-0.3,0.1-0.5,0.1c-0.2,0-0.3,0-0.5,0.1
		c-0.1,0.1-0.2,0.2-0.4,0.3l-0.1,0.1c-0.1,0.2-0.2,0.3-0.4,0.5l0,0c-0.3,0.4-0.5,0.8-0.8,1.2c-5.5,10.8-7.9,22.3-7.8,34.3
		c0,3.8-0.1,7.5-0.1,11.3c0,1.3,0.1,2.6-0.9,3.7c-1.3,2.3-3.2,4.1-5.1,5.8c-0.6,0.5-1.1,1.1-1.6,1.7l0,0c-1.2,1.4-1.4,2.3-0.7,3.5
		l0,0C19.6,162.3,19.6,162.4,19.7,162.5C19.7,162.5,19.7,162.5,19.7,162.5z M107.3,96.7c-0.1-0.1-0.2-0.2-0.3-0.4
		c-0.3-0.4-0.7-0.7-1-1.1c0.1-0.1,0.2-0.2,0.3-0.3c1.1,1.1,2.2,2.2,3.4,3.4c3.1-0.8,5.9-2.3,8.5-4.4c3.1-2.4,5.7-5.3,7.6-8.7
		c0.4-0.7,1-1.5,0.2-2.6c-0.3,0.7-0.5,1.2-0.7,1.7c0.1,0.1,0.2,0.2,0.3,0.3c-0.7,0-1.5,0.1-2.2,0c-4.9-0.9-8.8-3.7-12.1-7.3
		c-1.5-1.7-2.7-3.7-4.1-5.5l0,0c0,0,0-0.1,0-0.1c0-0.1,0-0.1-0.1-0.2c-0.2-0.6-0.4-1.1-0.6-1.7c-1.4,0.2-2.8,0.4-3.7,0.5
		c-0.6,1.4-0.8,2.7-1.6,3.6c-0.7,0.8-1.1,1.4-0.9,2.4c0.1,0.4-0.1,0.8,0,1.2c0.1,0.4,0.2,0.8,0.5,1c1.7,1.7,3.5,3.3,5.3,5
		c1.7,2.5,3.4,5,3.9,8c-2.3,0.4-4.4,0.8-6.5,1.2c1.5-1.3,3.5-1.4,5.5-1.6c0.9-0.3,0.1-0.7,0-1l0,0c-0.1-0.2-0.1-0.3-0.2-0.5l0-0.1
		c-1.8-4.4-4.8-7.8-8.7-10.7c-0.1,0.6-0.2,1-0.3,1.5c-0.3,0.8-0.7,1.6-1,2.4c-0.5,0.4-0.4,0.9-0.2,1.5c1,2.2,2,4.4,2.7,6.7
		c0.6,2.1,0.9,4.3,1.4,6.5c0.3,4.3,0.7,8.5-0.7,12.9c-7-5.4-15.2-8.1-22.4-12.7c-0.7-0.5-1.4-0.9-2.1-1.4c-5.6-3.8-10.9-7.9-14.2-14
		c-0.6-1.8-1.3-3.6-1.9-5.5c-0.2,0.7-0.8,1.4-0.7,2.1c0.8,5.3,2.9,10.1,5.6,14.6c1.6,2.4,3.2,4.7,4.9,7.1c3.2-2.7,5-3.2,8.2-2.5
		c0.3,0.2,0.5,0.3,0.8,0.5c-3.2-0.6-5.9,0-8.2,2.3c-0.6,0.6-1,0.2-1.4-0.3c-1-1.2-2-2.4-3-3.6c-0.1-0.1-0.2-0.2-0.2-0.3l0,0
		c-0.1-0.1-0.2-0.3-0.3-0.4l0,0c-0.2-0.3-0.4-0.7-0.6-1C63.3,89.8,60.7,84,60,77.6c-0.1-0.2-0.1-0.5-0.2-0.8
		c-4.1,3.1-6.9,6.9-9,11.5c0.6,0,1.1,0,1.5,0c0.7,0.1,1.4,0.2,2.2,0.3c3.7,1.1,6.3,3.6,7.6,7.2c2,5.6,1.6,11.2-0.2,16.8
		c-0.2,0.7-1.1,1.2-1.6,1.8c-0.8,0.2-1.7-0.5-2.3,0.6c-4.2,6.5-7.2,13.5-9.4,20.9c-0.1,0.3-0.2,0.6-0.3,1c4.3,1.7,8.5,2.8,13,3
		c3.1-0.2,6.3-0.1,9.4-0.6c2.8-0.4,5.4-1.4,8.2-2.2l0,0c0.3-0.1,0.5-0.2,0.8-0.3c0.5-0.1,0.9-0.3,1.4-0.4c6-2.1,11.9-4.2,17.9-6.2
		c5.3-1.8,10.8-2.9,16.5-2.1c2.5,0.4,4.9,1.2,7,2.7c0.9,0.7,1.8,1.4,1.2,2.8c-0.2,0.4-0.1,0.9-0.2,1.5c1.1-0.8,1.4-1.8,1.3-2.9
		c-0.1-1.5-0.1-3-0.4-4.4c-1.8-7.1-5.5-13.2-11.2-17.9c-1.2-1-1.6-2-1.6-3.5c0-3.6-1.2-6.8-3.7-9.5l0,0
		C107.4,96.9,107.3,96.8,107.3,96.7L107.3,96.7z M79.6,43.8L79.6,43.8c-0.1,0.2-0.2,0.3-0.3,0.5c0,0.4-0.1,0.8-0.1,1.2
		c-1.4-0.4-2.9-0.9-4.3-1.3c-0.1,0.1-0.1,0.2-0.2,0.3c0.4,0.3,0.7,0.7,1.1,1c0.2,0.4,0.3,0.8,0.5,1.2c-0.3-0.1-0.5-0.1-0.8-0.2
		c-2.7-0.8-5.2-0.6-7.8,1.1c0.7,0.1,1.1,0.1,1.6,0.1c1,0.4,1.9,0.7,3,1.1c-0.9,0.3-1.6,0.3-2.2,0.7c-1.3,0.9-2.5,1.9-3.8,2.8
		c-2-2.1-5.1-2.8-7.8-1.6c-0.1,0.1-0.2,0.1-0.3,0.2h0c-0.2,0.1-0.3,0.2-0.5,0.2l0,0c-0.1,0.1-0.2,0.2-0.3,0.3
		c-0.2,0.2-0.5,0.3-0.7,0.5c0.7,0.2,1.3,0.1,1.8,0.2c1.2,0.2,2.4,0.4,2.9,1.7c-0.4,0.1-0.8,0.2-1.2,0.4c-1,0.6-2,1.3-3,1.9h0
		c-0.1,0.1-0.2,0.2-0.2,0.2l0,0c-0.2,0.2-0.4,0.5-0.6,0.7c0.1,0,0.2,0,0.3,0c0.4,0,0.8-0.1,1.2-0.1c1.4,0,2.8-0.2,3.8,1
		c-2.9,2.4-4.9,6.9-4.1,9.4c0.4-0.5,0.7-0.9,1-1.3c0.8-0.6,1.6-1.1,2.4-1.7c0.1-0.1,0.9-0.4,0.4,0.4c-2.4,2.3-2.8,5.2-2.4,8.2
		c0.2,1.4,0.5,2.8,1.6,4c0.1-0.4,0.2-0.6,0.3-0.8c0.7-1.1,1.6-2.1,1.4-3.7c0-0.3,0.4-0.6,0.5-0.9c-0.1,1.5-0.2,3,0.6,4.7
		c0.3-0.7,0.4-1.2,0.6-1.6c0.8-0.8,1.2-1.7,0.9-2.9c-0.3-1.7,0.1-3.3,1.7-4.2c1.4-0.8,2.9-0.8,4.2,0.2c0,0.1,0,0.3,0,0.4
		c-0.9-0.1-1.7-0.3-2.6-0.4c-0.2,0.1-0.4,0.1-0.5,0.2l0,0c-1.2,0.3-1.8,1.1-2.1,2.2c-0.8,3.1,1.3,5.2,4.5,4.5c0.2,0,0.4,0.2,0.5,0.3
		l0,0c-2,0.8-3.7,0.4-5.2-1.3c-0.6,1.3-1.2,2.5-1.9,4c-0.5-0.9-0.9-1.7-1.3-2.4c-0.1,0-0.3,0.1-0.4,0.1c0.3,1.3,0.5,2.7,1,3.9
		c2.8,7.8,9.1,12.5,15.7,16.9l0-0.1l0,0.1c0.2,0.2,0.5,0.3,0.7,0.5c0.2,0.1,0.4,0.3,0.6,0.4c7.1,4.5,15.2,7.3,22,12.6
		c0.1-0.7,0.2-1.4,0.3-2c0.1-0.4,0.2-0.8,0.2-1.2c0.2-4.3-0.1-8.5-1-12.7c-0.7-3.3-1.6-6.5-3.4-9.5c-0.3,0.4-0.6,0.8-0.8,1.1
		c-0.9,0.9-1.8,1.9-3.3,2.3c5.1-5.1,6.8-8.9,5.7-12.7c2-1.5,2.6-2.8,2.1-4.4c-0.9,0-1.7,0.1-2.6,0.1c-0.7,0-0.9,0.2-1.1,0.9
		c-0.6,2-2.5,3-4.6,2.6c-0.3-0.1-0.8,0-1.1,0.3c-1.1,0.9-2.3,1.4-3.8,1c-0.2,0-0.4,0-0.6,0.1c-1.9,1.3-2.6,1.4-4.5,0.1
		c-0.8,0.6-1.6,1.2-2.4,1.9c-0.1-0.1-0.2-0.2-0.2-0.3c0.5-0.5,1-1.2,1.6-1.5c2.1-1.3,4.2-2.6,6.4-3.6c3.9-1.7,8.2-1.9,12.4-2.2
		c3.3-0.2,6.5-0.6,9.4-2.2c0.2-0.2,0.5-0.4,0.7-0.6l0,0c0.6-0.8,1.4-1.5,1.8-2.4c0.6-1.6-0.1-2.5-1.8-2.8c-1.2-0.2-2.4-0.4-3.6-0.6
		c-0.8-0.1-1.7-0.2-2.5-0.3c-1.3,0.6-2.4,1.8-4,1.8c1.1-0.8,2.3-1.5,3.5-2.2c1-0.7,1.8-1.5,1.8-2.9c0-2.5-2-3.8-4.2-2.8
		c-0.4,0.2-0.8,0.5-1.2,0.7c-1.5,1-3,2-4.5,3c-0.3,0.1-0.7,0.2-1,0.2c-1.8,0.3-3.5,0.1-4.7-1.6c-1.9-2.6-1.3-6,1.5-7.7
		c0.6-0.3,1.2-0.6,1.8-0.9c0.7-0.1,1.5-0.2,2.2-0.3c-2.6-2.4-4.7-0.8-6.9,0.6c0.2-0.3,0.4-0.7,0.6-1.1c-2.7-0.4-5.3-0.3-7.7,0.9
		c-0.2,0.1-0.4,0.2-0.6,0.2c-0.1,0-0.3,0-0.4,0c0.6-0.6,1.2-1.1,2-1.2c1.8-0.3,2.9-1.3,3.8-2.8c0.7-0.5,1.3-0.9,2.1-1.5
		c-2.6-0.3-4.5,0.7-6.4,2c0.2-1.1,0.3-2.3,0.5-3.4c0.2-0.6,0.4-1.2,0.6-2c-1.7,0.7-2.9,1.6-3.8,3l0,0c-0.1,0.2-0.2,0.3-0.2,0.5l0,0
		C79.8,43.6,79.7,43.7,79.6,43.8z M113.1,30.2c-0.3-0.2-0.6-0.3-1-0.5c-0.2-0.2-0.4-0.3-0.8-0.6c0.4,0,0.6-0.1,0.8,0
		c0.5,0.2,1.1,0.4,1.6,0.7c0.2,0.3,0.5,0.6,0.7,0.9c0.1,0.1-0.1,0.3-0.2,0.5c-0.1,0-0.1-0.1-0.2-0.1c0,0.1,0.1,0.1,0.1,0.2
		c0.1,0.6,0.2,1.1,0.3,1.7c0.8,0.6,2.8,0.2,3.4-0.6c0.1-0.1,0-0.3-0.1-0.4c-0.2-1-0.4-2-0.8-3c-0.3-0.7-0.8-1.4-1.2-2.1
		c-1.1-0.8-2.3-1.5-3.4-2.3c-0.4-0.3-0.5-0.8-0.8-1.2c0.3-0.4,0.5-0.8,0.8-1.3c-1.1-0.3-1.3,0.3-1.5,1c-1.5,1.2-2.1,2.7-1.6,4.5
		c0.2,0.7,0.4,1.4,0.6,2.2c0.6,0,1.3,0.1,1.9,0.1c0.2,0.2,0.3,0.3,0.5,0.5c-0.4,0-0.8-0.1-1.2-0.1c-0.7,0-1.6-0.3-1.9,0
		c-0.7,0.7-1.1,1.8-1.7,2.7c-1,1.6-2.1,3.2-3.2,4.9c0.7,0.2,1.1,0.4,1.5,0.5c0.5,0.5,1,0.9,1.5,1.4c0.3,0.2,0.7,0.5,0.7,0.5
		c1.3-1.1,2.5-2.2,3.9-3.6c-0.6,0-0.8,0-1.1,0c-0.4-0.1-0.8-0.2-1.2-0.3c-0.3-0.2-0.5-0.5-0.8-0.7c0.4,0.1,0.8,0.2,1.2,0.2
		c2,0.5,3.7-0.5,3.7-2.3c-0.5-0.4-1.1,1.7-1.6,0l0,0c0.1-0.1,0.1-0.3,0.2-0.4c0.5-0.7,1-1.3,0.5-2.2c0.1,0,0.3-0.1,0.4-0.1
		C113.4,30.5,113.2,30.4,113.1,30.2z M102.4,39L102.4,39c0,0.4,0,0.8,0,1.2c0.4,0.6,0.9,1.2,1.4,2c0.4-0.8,0.5-1.1,0.8-1.8
		c-0.8-0.1-1.4-0.2-2.1-0.2c0-0.2,0-0.3,0-0.5c0.8,0.2,1.6,0.3,2.4,0.5c0.4,0.1,0.8,0.3,1.3,0.5c0.1,0.1,0.2,0.3,0.3,0.4
		c0,0.2,0,0.3,0,0.5c-0.6-0.2-1,0-0.9,0.6c0,0.3,0.4,0.5,0.7,0.8c0.1,0,0.2,0.1,0.3,0.1c-0.1,0-0.2-0.1-0.3-0.1
		c0.1-0.5,0.2-1,0.2-1.4c0.2,0.2,0.5,0.5,0.7,0.7c-0.1,0.2-0.1,0.4-0.2,0.6c1-0.7,0.7-1.4,0.2-2.2c-1-1.7-3.2-2.6-4.6-2l0,0
		C102.6,38.8,102.5,38.9,102.4,39z M130,13.6c-0.1-0.1-0.1-0.2-0.2-0.3c-0.6-2.3-3.5-4.6-5.8-4.5c-0.6,0-1.3,0-1.9,0
		c-0.3,0.2-0.7,0.5-1.2,0.8c0.7,0.5,1.1,0.9,1.6,1c2.1,0.5,3.7,1.7,5.1,3.3c0.4,0.4,0.8,0.9,1.2,1.3c0.2,0.3,0.3,0.6,0.5,1
		c0,0.2,0,0.4,0.1,0.7C130.2,15.8,130.5,14.8,130,13.6z M110.3,22.4c0.3-0.4,0.8-0.7,0.2-1.2c0.1-0.1,0.1-0.1,0.1-0.2
		c1.2,0.1,2.3,0.4,3.5,0.4c0.7,0,1.5-0.6,2.2-0.9c0.1-0.7,0.1-1.4,0.2-2c-1-1.7-4.2-2.9-6-2.1c-0.4,0.2-0.7,0.6-1.1,1
		c-0.1,0.3-0.3,0.7-0.4,1c-0.5,1.8,0,3.4,0.7,5.3C109.9,23.1,110.1,22.8,110.3,22.4L110.3,22.4z M117,18.1c0.9,0.9,2.3,0.3,2.7-1.2
		c0-0.2,0-0.3,0-0.5c-0.1-0.4-0.2-0.8-0.3-1.3c-1.3-2.6-5-3.9-7.6-2.6c-0.5,0.3-0.9,0.8-1.3,1.2c-0.2,0.6-0.4,1.2-0.4,1.5
		c1.8,0.4,3.4,0.7,4.9,1.1C115.7,16.9,116.4,17.5,117,18.1z M121.4,19.2c-2.1-0.2-3.1,0.4-3.8,2.5c-0.5,0.1-1,0.3-1.5,0.2
		c-2.1-0.3-2.8,0-3.7,1.9c1.5,1,2.9,2,4.2,2.8c0.4-1.4,0.7-2.8,1.1-4.2c0.1-0.2,0-0.5-0.1-0.8c0.4-0.3,0.9-0.6,1.3-0.9
		c0.7-0.7,1.2-1.7,2.5-1.2c0.9,1.1,1.9,0.7,2.9,0.3c0.5,0.2,0.9,0.4,1.6,0.6c-1,1.9-1.9,3.7-2.8,5.5c0.1,0,0.2,0.1,0.3,0.1
		c1.8-2.6,3.6-5.2,5.3-7.8c0.2-0.3,0.3-1,0.2-1.3c-1-2.8-3.1-4.4-5.5-5.4c-0.2,0.9-0.1,1.9-0.5,2.5c-0.4,0.6-1.3,0.9-2.1,1.3
		c0.1,0.2,0.1,0.6,0.2,1c1.5-0.3,1.7-0.1,1.3,1.3c-0.3,0-0.7,0-1.3,0c0,0-0.2,0.3-0.4,0.6c0.8,0.2,1.5,0.3,2.2,0.4
		c0,0.2-0.1,0.3-0.1,0.5C122.1,19.1,121.7,19.1,121.4,19.2z M118.7,22.2c-0.2,0.3-0.4,0.6-0.7,0.9c0,0.1-0.1,0.1-0.1,0.2
		c-0.2,0.8-0.5,1.6-0.5,2.4c0.2,1.9,0.5,3.8,0.9,5.6c0.2,1,0,1.6-0.7,2c-0.5,0.3-1,0.6-1.5,0.5c-1.1-0.1-1.6,0.4-2,1.3
		c-0.1,0.4-0.4,0.9-0.3,1.3c1,6.1,0.9,12.2-0.3,18.3c-0.4,2.2-1.3,4.4-1.9,6.6c0.2,0,0.5,0.1,0.9,0.2c0.4,0.5,0.9,0.9,1.3,1.4
		c0.5,2.4-0.8,4-2.5,5.3c-1.3,0.5-2.5,1.1-4,1.7c0.5,0.9,0.9,1.8,1.4,2.7c3.1,5.1,7.4,8.6,12.8,10.9c0.6,0.3,1.4,0.4,2.1,0.5
		c0.4,0,1-0.2,1.2-0.5c1.7-3.3,3.4-6.7,5-10.1c1.8-4.2,2.8-8.6,3.4-13.1c1-7.9-0.1-15.6-1.8-23.3c-0.9-4-2.9-7.7-2.8-11.9
		c0-0.2,0-0.3,0-0.5c-0.2-1.2-0.4-2.4-0.6-3.6c-0.1,0-0.3,0-0.4,0c-1.1,1.6-2.2,3.2-3.3,4.8c0.4,0.2,0.7,0.3,1,0.4
		c1.9,1.6,2.6,3.2,2.1,4.4c-0.4-0.9-0.8-2.1-1.5-3c-0.3-0.5-1.2-0.9-1.8-0.8c-0.4,0-0.7,0.9-1.1,1.4c0.1,0-0.1,0-0.1-0.1
		c-0.1-0.2-0.2-0.5-0.3-0.8c0.2-1.6,0.4-3.2,0.5-4.7c0.1-1.6-1.3-2.7-2.7-2C119.6,21,119.2,21.7,118.7,22.2
		C118.7,22.2,118.7,22.2,118.7,22.2z M122.3,13.3c0-0.2,0.1-0.3,0.1-0.5c-0.5-2.8-4.2-4.4-6.4-2.7c-0.3,0.4-0.5,0.8-0.8,1.2
		c0.8,0.3,1.5,0.5,2.1,0.8c0.6,0.3,1.2,0.8,1.8,1.2C120.1,14.8,121.7,14.8,122.3,13.3z M49.7,89.3L49.7,89.3c-0.4,0-0.8-0.1-1.2,0
		c-5.9,1.6-10.3,5.2-13.4,10.5c-0.2,0.3,0,0.8,0,1.2c0.1,0,0.3,0,0.4,0c0.1-0.2,0.2-0.5,0.3-0.7c0,0,0.1,0,0.1,0c0,0,0,0,0-0.1
		c0,0,0,0.1-0.1,0.1c-0.2-0.1-0.3-0.2-0.6-0.4c0.8-0.3,1.4-0.6,2.1-0.8c3.5-0.7,7-0.6,10.4,0.6c2.5,0.9,4.9,2.3,7.3,3.5l0,0
		c0.4,0.3,0.8,0.7,1.2,1c2.5,2.4,4.7,4.9,5.2,8.7c0.3-1.3,0.6-2.7,0.8-4c0.8-4.5,0.8-8.9-0.8-13.2c-1.2-3.1-3.3-5.3-6.6-6.3l0,0
		c-0.4-0.1-0.8-0.2-1.2-0.4c-0.6,0-1.3-0.1-1.9-0.1C51,89.1,50.4,89.2,49.7,89.3z M61.7,215.4c0.4,0.1,0.7,0.2,1.1,0.4
		c0.9-5,3-9,8.4-10.6c-1-0.1-2-0.1-3-0.2c-2.9-0.4-5.2,0.7-6.9,2.9c-1.6,1.9-2.1,4.3-2.1,6.9C60,215,60.9,215.2,61.7,215.4z
		 M112,202.3c0.6-0.2,1.2-0.4,1.7-0.5c-2.8-0.5-5.5-0.8-7.9,0.9c-2.6,1.6-3.4,4.2-3.8,7.1c1.2,0.3,2.3,0.5,3.5,0.8
		C106.3,206.7,108.6,204.1,112,202.3z M116.7,203.5c0.7-0.2,1.4-0.4,2.2-0.6c0-0.1,0-0.2,0-0.3c-1.3-0.1-2.7-0.3-4-0.4
		c-4.4,0.3-8.6,5.2-8.5,8.6c1.3,0.2,2.6,0.4,3.8,0.6c0.6-1.3,1-2.5,1.6-3.5C112.7,205.7,114.6,204.5,116.7,203.5z M57.9,204.4
		c-1.1-0.5-1.5,0.5-2,1c-1.3,1.7-1.9,3.7-2.4,5.8c-0.2,0.8,0,1.2,0.7,1.4c1.4,0.7,2.8,1.3,4.3,2c0.2-4,1.5-7.2,4.8-9.3
		C61.4,205,59.6,204.7,57.9,204.4z M73.7,207.2c0.6-0.2,1.2-0.3,1.8-0.5c0-0.1,0-0.3,0-0.4c-1.3-0.1-2.6-0.2-3.9-0.2
		c-4.4,0.4-8,5.4-7.9,9.9c1.1,0.2,2.3,0.4,3.4,0.7C68.4,210.9,69.6,209.1,73.7,207.2z M95.7,207.5c1.8,0.7,3.7,1.4,5.4,2.1
		c0.6-1.7,1-3.3,1.8-4.6c0.8-1.3,2-2.3,2.9-3.2c-2.3-0.3-4.8-0.6-7.4-0.9c-0.5-0.2-1.1-0.6-1.5,0.2c-1,1.9-2,3.7-3,5.8
		C94.6,207.1,95.2,207.3,95.7,207.5z M122.3,131.7L122.3,131.7c-1.2-1.4-2.9-1.9-4.6-2.4c-5.8-1.6-11.6-0.8-17.2,1
		c-6.9,2.3-13.7,4.7-20.6,7c-0.3,0.1-0.6,0.2-0.9,0.3c0,0.1,0,0.1,0.1,0.2c1.4,0.1,2.8,0.2,4.1,0.3c2.7,0.1,5.3,0.3,8,0.4
		c9.9,0.2,19.4-1.5,28.5-5.2c0.9-0.4,1.7-1,2.6-1.4c0.1,0,0.1,0,0.2,0C122.4,131.9,122.4,131.8,122.3,131.7z M131.9,210.6
		c0.4-0.1,0.7-0.1,1.4-0.3c-0.8-0.8-1.2-1.5-1.9-1.9c-1.9-1.1-3.8-2.1-5.7-3.2c-1.1-0.6-2.1-0.6-3.2-0.1c-3.3,1.1-5.5,3.3-6.8,6.6
		C121.3,211.9,126.6,211.6,131.9,210.6z M62.4,216.4c-3.1-1.1-6.2-2.2-9.3-3.3c-0.4,2.8-0.4,2.8,2.3,3.9c4.1,1.6,8.3,2.8,12.6,3.4
		c6.7,1.2,13.5,1.1,20.2,0c2.2-0.3,2.6-0.9,2.3-3.3c-0.3,0-0.6,0.1-0.9,0.1c-3.7,0.4-7.4,0.9-11.2,1.1
		C73.1,218.5,67.7,217.5,62.4,216.4z M78.7,209.7c-3.3,1.3-6,4.8-5.9,7.7c5.6,0.3,11.2,0.4,16.7-0.9c0.4-0.1,0.8-0.2,1.6-0.4
		c-1-1.3-1.6-2.5-2.6-3.2c-1.4-1.2-3.1-2-4.7-3C82.2,208.9,80.5,209,78.7,209.7z M107.7,214.9c2.9,0.3,5.8,0.7,8.7,0.9
		c4.9,0.3,9.9,0.1,14.8-0.8c0.4-0.1,1.1-0.4,1.2-0.7c0.4-1,0.6-2,0.8-3.1c-3.2,0.4-6.3,0.8-9.3,1.1c-7.1,0.6-14.2-0.1-21.1-1.6
		c-3-1-5.9-2.1-8.9-3.1c-0.1,0.4-0.2,1-0.4,1.6c-0.3,0.9,0,1.5,0.9,1.9C98.6,213.1,103.1,214.2,107.7,214.9z M116,188.3
		c0.6-3.5,1.4-7,1.6-10.6c0.5-7.9-1-15.7-3.2-23.2c-0.1-0.4-0.4-0.7-0.5-1c-0.5-1.6,0.2-2.6,1.3-3.5c0.3-0.2,0.5-0.6,0.7-0.9
		c1.3-2.1,2.6-4.3,3.9-6.4c1.7-3,2.5-6.3,2.9-9.9c-1.3,0.6-2.5,1.2-3.7,1.7c-8.6,3.3-17.6,5-26.9,5c-3.9,0-7.7-0.3-11.6-0.4
		c-1.5-0.3-3-0.7-4.6-0.2c-4,1.2-8,1.9-12.2,1.9c-4.3,0-8.5-0.7-12.6-1.9c-0.4-0.2-0.9-0.3-1.4-0.5c0,0.5,0,0.8,0,1.1
		c0.8,4.1,2.3,7.9,5,11.1c1.6,1.9,3.6,3.4,3.9,6.1c0.1,0.5,0.3,1,0.4,1.5c1.8,5.7,2.6,11.6,2.7,17.5c0.1,4.4-0.7,8.8-2.2,13
		c-1.5,4.3-3.2,8.5-4.9,12.7c-0.4,1-0.2,1.4,0.7,1.7c1,0.3,1.9,0.6,2.9,0.8c0.2,0.1,0.3,0.1,0.5,0.1c0.2,0,0.5,0,0.7,0
		c1.3,0.1,2.6,0.3,3.9,0.4c2.5-0.1,5-0.3,7.5-0.4c1.1,0,1.7-0.6,2.1-1.5c1.1-2.9,2.3-5.7,3.4-8.6c0.2-0.5,0.5-1,0.7-1.5
		c3.3-9.5,4.1-19.3,2.9-29.2c0-0.1,0-0.3-0.1-0.4c0-0.1,0-0.2,0-0.3c0.5-0.1,1.1-0.4,1.6-0.4c6.1,0.1,11.9-1,17.5-3.4
		c0.4-0.1,0.7-0.3,1.1-0.4c0.1,0.1,0.1,0.2,0.2,0.3c-0.9,0.5-1.8,1-2.6,1.5c-1,0-1,0.5-0.7,1.3c2.2,4.9,3.3,10.1,3.4,15.5
		c0,4.2-0.7,8.3-1.8,12.4c-0.8,2.9-1.8,5.8-2.8,8.8c-0.3,0.8-0.1,1.3,0.7,1.6c1.2,0.3,2.5,0.5,3.7,0.8c1.4,0.1,2.7,0.3,4.1,0.4
		c2.5-0.1,5.1-0.2,7.6-0.3c0.8,0,1.1-0.5,1.2-1.2c0.3-1.2,0.6-2.5,0.9-3.7C114.6,193.1,115.3,190.7,116,188.3z M90.4,54.1
		c0,3.6,3.1,5.4,6.3,3.7c1.4-0.8,2.7-1.7,4-2.7c0.3-0.2,0.5-0.7,0.5-1.1c0.2-2.3-1.3-4.3-3.6-4.8C93.9,48.4,90.4,50.8,90.4,54.1z
		 M71.9,217.3c1.1-4.7,3.8-7.8,8.7-8.8c-6.2-3.8-12.6,1.8-12.7,8.2C69.2,217,70.5,217.2,71.9,217.3z M115.2,211.8
		c1.3-4.1,4.2-6.3,8.1-7.4c-2.9-1.8-5.5-0.9-8,0.6c-2.4,1.4-3.9,3.5-4.4,6.4C112.3,211.5,113.7,211.6,115.2,211.8z M92.2,73.2
		c2.7,0.9,4.8-0.1,5-2.5c-4.8,0.5-9.3,1.7-13.4,4.5c1.4,0.8,2.5,0.8,3.4-0.1c0.4-0.5,0.7-0.5,1.3-0.4C90.2,75.2,91.4,74.7,92.2,73.2
		z M105.1,41.3c-1.2,1.8-1.2,4.5,0,5.4C105.1,44.9,105.1,43.2,105.1,41.3z M58.9,113.6c1.5,0.1,1.7-0.2,1.3-1.9
		C59.8,112.4,59.4,113,58.9,113.6z"/>
	<path class="st1" d="M105.3,215.4c0.2,0,0.4,0,0.7,0c0.2,0.1,0.4,0.2,0.5,0.3c0.3,0,0.6,0,0.9,0c0.2,0.1,0.4,0.2,0.5,0.2
		c0.4,0,0.8,0,1.2,0c0.2,0.1,0.5,0.2,0.7,0.2c0.4,0,0.8,0,1.2,0c0.1,0,0.2,0,0.3,0c0.2,0,0.3,0,0.5,0.1c0.6,0.8,1.4,0.5,2.2,0.2
		c0.2,0,0.3,0,0.5,0c0.3,0.2,0.5,0.4,0.8,0.4c2.9,0,5.8,0,8.7,0c0.3,0,0.5-0.3,0.8-0.4c0.3,0,0.6,0,0.9-0.1c0.7,0.1,1.3,0.2,2,0.3
		c-1.5,0.4-3,0.9-4.6,1.2c-4,0.6-8,1.1-12,1.5c-5.2,0.5-10.3,1-15.5,1.4c-1.4,0.1-2.8,0-4.2,0c-0.2,0-0.4-0.2-0.7-0.4
		c1.2-2.4,1.2-5.5-1.9-8.2c-0.2-0.2-0.5-0.4-0.7-0.5l0,0c-0.2-0.2-0.5-0.3-0.7-0.5l0,0c-0.3-0.2-0.5-0.3-0.8-0.5
		c-0.1-0.1-0.3-0.2-0.4-0.2c-0.4-0.2-0.8-0.5-1.3-0.7c-0.1-0.1-0.3-0.2-0.4-0.2c-0.4-0.5-0.8-1-1.2-1.5c3.2,0,6.4,0,9.6,0
		c-0.3,2.8-0.3,2.9,2.4,4c2,0.8,4.1,1.5,6.1,2.2c0.7,0.2,1.5,0.4,2.2,0.7c0.2,0.1,0.3,0.2,0.5,0.3c0.2,0,0.5,0,0.7,0
		C105,215.2,105.2,215.3,105.3,215.4z"/>
	<path class="st1" d="M53.1,209.9c-0.1,0.5-0.2,0.9-0.3,1.4c-0.1,0.4-0.3,0.9-0.4,1.3c0,0.4,0,0.8,0,1.2c0,0.1,0,0.2,0,0.2
		c0,0.5,0,1,0,1.4c0,0.1,0,0.2,0.1,0.3c0.9,0.6,1.6,1.3,2.6,1.6c3.3,1.2,6.7,2.2,10.1,3.2c-0.8,0.1-1.6,0.4-2.4,0.3
		c-2.8-0.2-5.5-0.6-8.3-0.9c-4.7-0.5-9.3-1.3-13.8-2.9c-0.5-0.2-1.1-0.6-1.5-0.9c-1.4-1.1-1.3-2.1,0.3-2.9c1.3-0.7,2.7-1.3,4.1-1.6
		C46.6,210.9,49.8,210.5,53.1,209.9z"/>
	<path class="st2" d="M127.6,216.6c-0.7-0.1-1.3-0.2-2-0.3c1-0.1,1.9-0.1,2.9-0.2C128.6,217.1,128,216.6,127.6,216.6z"/>
	<path class="st3" d="M107.3,71.8c1.4,1.9,2.6,3.9,4.1,5.5c3.3,3.6,7.1,6.4,12.1,7.3c0.7,0.1,1.4,0,2.2,0c-0.1-0.1-0.2-0.2-0.3-0.3
		c0.2-0.5,0.4-1,0.7-1.7c0.8,1.1,0.2,1.9-0.2,2.6c-1.9,3.5-4.5,6.3-7.6,8.7c-2.6,2.1-5.4,3.6-8.5,4.4c-1.2-1.2-2.3-2.3-3.4-3.4
		c-0.1,0.1-0.2,0.2-0.3,0.3c0.3,0.4,0.7,0.7,1,1.1c0.1,0.1,0.2,0.2,0.3,0.4l0,0c0.1,0.1,0.2,0.2,0.3,0.3c0,0,0,0,0,0
		c0.1,0.4,0.2,0.9,0.4,1.3c1.3,3.1,2.1,6.2,2.2,9.6c0,1.3,0.5,2.3,1.4,3.1c2.7,2.2,5,4.8,7.1,7.5c2.1,2.9,3.9,5.9,4.9,9.3
		c0.4,1.4,0.7,2.9,1,4.4c0.1,1.1-0.2,2-1.3,2.9c0.1-0.6,0-1.1,0.2-1.5c0.6-1.4-0.2-2.1-1.2-2.8c-2.1-1.5-4.5-2.3-7-2.7
		c-5.7-0.8-11.1,0.3-16.5,2.1c-6,2-11.9,4.1-17.9,6.2c-0.5,0.2-0.9,0.3-1.4,0.4c-0.3,0.1-0.5,0.2-0.8,0.3c0,0,0,0,0,0
		c-0.2,0-0.4-0.1-0.6,0c-4,0.6-7.9,1.1-11.9,1.8c-2.9,0.5-3.5,0.1-4.7-2.6c-1.6-3.6-2-7.4-2.2-11.3c-0.2-3.6-0.1-7.2,1-10.6
		c0.6-0.6,1.4-1.1,1.6-1.8c1.8-5.6,2.1-11.2,0.2-16.8c-1.3-3.6-3.8-6.1-7.6-7.2c0.6-1.9,2.1-2.8,3.6-3.7c0.9-0.5,1.3-0.3,1.8,0.6
		c1.8,3.2,3.7,6.3,5.6,9.4c0.4,0.6,1.1,0.9,1.7,1.4l0,0c0.1,0.1,0.2,0.3,0.3,0.4c0,0,0,0,0,0c0.1,0.1,0.2,0.2,0.2,0.3
		c1,1.2,2,2.4,3,3.6c0.4,0.4,0.8,0.9,1.4,0.3c2.3-2.3,5-2.9,8.2-2.3c-0.3-0.2-0.5-0.3-0.8-0.5c0.1-0.1,0.2-0.2,0.3-0.4
		c7.2,4.5,15.4,7.3,22.4,12.7c1.4-4.4,0.9-8.6,0.7-12.9c-0.1-3.7-0.8-7.4-2.1-10.9c-0.5-1.3-1.2-2.6-1.8-3.8c0.3-0.8,0.7-1.6,1-2.4
		c1.3,1,2.8,1.9,3.9,3.2c1.6,1.8,3,3.8,4.5,5.8c0.1,0.2,0.4,0.2,0.6,0.3c0,0,0,0.1,0,0.1c0.1,0.2,0.1,0.3,0.2,0.5c0,0,0,0,0,0
		c0,0.3,0,0.7,0,1c-2,0.2-4,0.2-5.5,1.6c2.1-0.4,4.2-0.8,6.5-1.2c-0.5-3-2.2-5.5-3.9-8c-0.4-0.8-0.6-1.7-1.1-2.5
		c-0.8-1.4-1.2-2.8,0.1-4.1c0.5-0.5,0.8-1.1,1.2-1.6c0.7-0.9,1.5-1.6,0.8-2.9C107.1,72.3,107.3,72,107.3,71.8z M85.3,115.3
		c2.7-1.4,5.5-2.8,8.2-4.1C90.4,111.8,87.6,113.2,85.3,115.3z M84.5,110.3c2.7-0.4,5.5-0.8,8.2-1.2C89.9,108.8,87.1,109,84.5,110.3z
		 M103.5,109c1.4,0,2.8,0,4.3,0C106.5,108.1,104.6,108.1,103.5,109z"/>
	<path class="st4" d="M68.4,67.7c0.9,0.1,1.7,0.3,2.6,0.4c0.8,0.4,1.7,0.8,2.7,1.4c-0.1-0.8-0.2-1.2-0.2-1.6
		c0.3,0.1,0.6,0.1,1.1,0.2c-1.4-4.8-1.8-9.4,0.6-13.9c0.2-0.2,0.3-0.3,0.5-0.5c0.5,1.4,0.9,2.9,2.5,3.6c0.1-0.2,0.3-0.3,0.3-0.4
		c0.2-2.4,0.9-4.5,2.2-6.5c0.4-0.5,0.8-1,1.2-1.5c0.2-0.1,0.4-0.2,0.6-0.2c1.3,0,2.5,0,3.8,0.1c1.2,0.1,2.5,0.1,3.1,1.5
		c1.4-1.2,2.9-2.2,4.9-1.7c-0.6,0.3-1.2,0.5-1.8,0.9c-2.8,1.7-3.4,5.1-1.5,7.7c1.2,1.6,2.9,1.9,4.7,1.6c0.4-0.1,0.7-0.2,1-0.2
		c0.7-0.2,1.5-0.3,2.1-0.6c1.4-0.6,2.7-1.5,4.1-2c1.5-0.6,2.8,0.3,3,1.9c-1.4,0.9-2.9,1.8-4.3,2.7c-0.5,0.3-1,0.6-1.4,1.1
		c-0.3,0.3-0.6,0.9-0.4,1.1c0.2,0.4,0.7,0.9,1.1,0.9c1,0.1,2-0.1,2.9-0.2c1.1-0.2,1.7-0.9,1.6-2.1c1.8,0.6,3.7,1.2,5.5,1.9
		c1.1,0.4,1.2,1.3,0.9,2.3c-0.1,0.5-0.3,1.1-0.4,1.6l0,0c-0.2,0.2-0.5,0.4-0.7,0.6c-2.9,1.7-6.2,2-9.4,2.2
		c-4.2,0.3-8.5,0.5-12.4,2.2c-2.2,1-4.3,2.3-6.4,3.6c-0.6,0.4-1.1,1-1.6,1.5c0.1,0.1,0.2,0.2,0.2,0.3c0.8-0.6,1.6-1.2,2.4-1.9
		c2,1.2,2.6,1.2,4.5-0.1c0.1-0.1,0.4-0.1,0.6-0.1c1.4,0.4,2.6,0,3.8-1c0.3-0.2,0.8-0.3,1.1-0.3c2.1,0.4,4-0.6,4.6-2.6
		c0.2-0.7,0.5-0.9,1.1-0.9c0.9,0,1.7-0.1,2.6-0.1c0.5,1.6-0.1,2.8-2.1,4.4c1.1,3.8-0.6,7.6-5.7,12.7c1.6-0.4,2.4-1.5,3.3-2.3
		c1.1,3.1,2.6,6,3.2,9.2c0.9,4.3,1.2,8.8,1.8,13.2c-0.1,0.6-0.2,1.2-0.3,2c-6.8-5.3-14.9-8-22-12.6c-0.2-0.1-0.4-0.3-0.6-0.4
		c-0.2-0.2-0.5-0.3-0.7-0.5l0-0.1c0,0,0,0.1,0,0.1c-0.1-0.2-0.1-0.6-0.3-0.7c-1-0.9-2-1.9-3-2.7c-2.4-2.1-4-4.8-5.3-7.6
		c-1.1-2.2-1-4.5-0.9-6.9c0-1.1,0.1-2.1,1.3-2.5c0.2-0.1,0.2-0.4,0.4-0.7l0,0c0.8-0.2,0.6-0.4,0-0.7c-1.5-0.8-1.5-1.3-0.2-2.4
		c0-0.3,0.2-0.6,0.1-0.8c-0.6-1-1.4-1.3-2.5-1c-0.1-0.7-0.2-1.4-0.3-2.1l0,0C68.1,67.9,68.2,67.8,68.4,67.7z M96.4,101.8
		c0.3-0.2,0.6-0.4,0.9-0.5c0.4-0.1,0.9,0,1.3,0c0-0.1,0-0.1,0-0.2c-0.5-0.1-1-0.3-1.3-0.3c-0.2-0.8-0.3-1.5-0.5-2
		c-0.1-0.2-0.5-0.4-0.8-0.5c-0.1,0.3-0.5,0.7-0.4,1c0.1,0.6,0.5,1.1,0.8,1.8c-0.6,0.3-1.2,0.6-1.8,0.9c-0.2-0.8-0.2-1.4-0.4-2
		c-0.1-0.3-0.6-0.4-0.9-0.7c-0.2,0.4-0.6,0.8-0.5,1.1c0.2,0.7,0.6,1.2,1,1.9c-0.3,0.3-0.6,0.6-1,1.2c1.2-0.5,2-1.6,3.2-1.4
		c-0.2,1.1,0.2,2,1.3,2.5c-0.1,0.3-0.2,0.6-0.3,0.9c0.8-0.4,1.4-0.8,2.4-1.3c-0.7,0-1.1,0.1-1.5,0.1
		C97.8,103.1,97.6,102.2,96.4,101.8z M99.1,96c-0.6,0-1.2,0.1-1.7,0.1c0-0.8,0.1-1.4,0-2c-0.1-0.3-0.6-0.5-1-0.7
		c-0.2,0.3-0.6,0.7-0.6,1c0.1,0.7,0.4,1.3,0.7,2.2c-0.7,0.3-1.5,0.5-2.3,0.9c-0.1-0.8-0.1-1.4-0.4-1.8c-0.2-0.4-0.7-0.6-1.1-0.8
		c-0.2,0.4-0.5,0.9-0.4,1.3c0.1,0.6,0.6,1,1,1.7c-0.7,0.3-1.5,0.6-2.2,1c-0.2-0.8-0.1-1.4-0.4-1.7c-0.3-0.4-1-0.8-1.4-0.7
		c-0.7,0.2-0.6,0.9-0.3,1.5c0.3,0.5,0.8,0.9,1.2,1.3c-0.2,0.3-0.3,0.7-0.4,1c1.4-0.8,2.7-2.2,4.2-2.4c1.7-0.2,2.9-1.8,4.6-1.4
		C98.7,96.5,98.9,96.2,99.1,96C99.1,96,99.1,96,99.1,96C99.1,96,99.1,96,99.1,96z M84.9,64.5c-0.1,0.2-0.2,0.3-0.2,0.5
		c0.5-0.1,0.8-0.4,1.1-0.6c1.2-0.8,2.3-1.6,3.5-2.2c2.3-1.1,2.5-0.9,2.6,1.6c0.2-0.6,0.4-1.4,0.2-1.9c-0.2-0.5-0.9-0.7-1.6-1.1
		c0-3.2-1.4-4.9-5.5-6.3c0-0.6,0-1.2,0-1.9c-0.1,0-0.2-0.1-0.3-0.1c0.1,2.8-1.9,3.5-3.8,4.5c-0.6,0.3-1.2,0.7-1.8,1
		c-1.8,0.9-2.5,2.4-2.3,4.4c0.2,2.1,1.2,3.6,3.2,4.4c0.3,0.1,0.7,0.1,1.1,0.2c-0.3-0.4-0.7-0.5-1.1-0.7c-0.4-0.2-0.7-0.5-1.1-0.7
		c-0.6-0.5-0.8-1-0.1-1.5c0,1.4,1.2,1.7,2.1,1.9c0.7,0.2,1.6-0.1,2.4-0.4C83.9,65.1,84.4,64.7,84.9,64.5z M89.1,100.6
		c0,0.1,0,0.1,0,0.2c0.2,0,0.4-0.1,0.6-0.1c0-0.1,0-0.1,0-0.2C89.5,100.5,89.3,100.6,89.1,100.6z"/>
	<path class="st5" d="M79.9,162.4c0,0.1,0,0.2,0,0.3c-1.3-0.1-2.6-0.1-3.9-0.2c-1.9-0.2-3.8-0.5-5.8-0.8c-1.4-0.2-2.2,0.6-2.2,2
		c-0.1,2.4-0.1,4.8-0.3,7.2c-0.1,3-0.2,6-0.5,9c-0.6,5.6-1.8,11-3.7,16.3c-0.8,2.3-1.7,4.6-2.5,6.9c0.9,0.4,1.7,0.8,2.5,1.2
		c-1.3-0.1-2.6-0.3-3.9-0.4c-0.2,0-0.5,0-0.7,0c-0.2-0.1-0.3-0.1-0.5-0.1c-0.1-0.1-0.1-0.2-0.2-0.3c-2.5-1.6-2.4-1.5-1.2-4.2
		c1.1-2.6,2-5.4,3-8c2.1-5.9,2.9-12,2.6-18.2c-0.3-5.3-0.8-10.5-2.4-15.6c-0.7-2.2-1.3-4.5-3-6.3c-2.2-2.4-3.8-5.3-4.9-8.4
		c-0.5-1.3-0.7-2.7-1-4c4.1,1.2,8.3,2,12.6,1.9c4.2,0,8.2-0.8,12.2-1.9c1.6-0.5,3.1-0.1,4.6,0.2c-0.6,0.2-1.1,0.6-1.7,0.7
		c-3.6,0.7-7.2,1.4-10.8,2.2c-0.7,0.1-1.3,0.5-1.9,0.7c0.3,0.7,0.6,1.3,0.9,2c0.1,0.2,0.3,0.3,0.4,0.4c6.9,6.2,15.3,8.2,24.3,8.6
		c5.2,0.2,10-1.3,14.9-3c4.4-1.6,8.3-3.9,11.8-7c0.4-0.4,1-0.6,1.5-0.9c-1.3,2.1-2.6,4.3-3.9,6.4c-0.2,0.3-0.4,0.7-0.7,0.9
		c-1.1,0.9-1.9,2-1.3,3.5c-0.1,0.1-0.2,0.2-0.3,0.4c-0.3,0.1-0.6,0.2-0.9,0.4c-2.4,1.6-4.8,3.2-7.2,4.8c-1.8,1.2-2,1.8-1.6,4.1
		c0.5,3.6,1.1,7.2,1.3,10.9c0.5,8.1-0.2,16.1-2.5,24c-0.5,1.8-0.5,1.8,1.2,2.6c0.1,0,0.1,0.2,0.2,0.3c-1.4-0.1-2.7-0.3-4.1-0.4
		c-0.3-0.1-0.6-0.3-1-0.4c-2.1-0.6-2.7-1.8-1.9-3.8c1.5-3.5,2.4-7.1,3.2-10.8c1.1-5.2,1.1-10.3,0.1-15.5c-0.6-3.4-1.6-6.7-2.9-9.9
		c0.9-0.5,1.8-1,2.6-1.5c-0.1-0.1-0.1-0.2-0.2-0.3c-0.4,0.1-0.7,0.3-1.1,0.4c-0.2,0-0.5-0.1-0.7-0.1c-4.6,1.2-9.3,2-14,2.3
		c-1.3,0.1-2.5,0.3-3.8,0.5C79.7,161.3,79.5,161.7,79.9,162.4z"/>
	<path class="st6" d="M30.5,162.7c-0.2-1.8,0.9-3,1.9-4.2c0.4-0.5,1-0.9,1.6-1.5c-3.5,0.5-5.1,4.9-3.3,8.5c-0.8,0.8-1.8,0.4-2.1-0.9
		c-0.2-0.7-0.3-1.5-0.3-2.2c0-1.6,0.1-3.2,0.2-4.9c0-0.6-0.1-0.9-0.7-0.7c-0.2,0.2-0.4,0.5-0.5,0.7c-1,0.6-2,1.3-3,1.9
		c-0.3,0.2-0.7,0.2-1,0.3c0-0.4-0.3-0.9-0.1-1.1c0.6-0.9,1.4-1.6,2.1-2.4c0.7-0.8,1.5-1.5,2.1-2.4c0.7-1.1,1.2-2.3,1.8-3.5
		c0.2-0.4,0.3-0.7,0.4-1.1c0.3-4.7,0.5-9.4,0.8-14.1c0.1-2.3,0.3-4.7,0.6-7c0.6-3.6,1.3-7.1,2-10.6c1-5.3,2.8-10.3,5.8-14.8
		c0.8-1.1,1.8-1.9,3.3-1.8c5.2,0.2,9.7,2.1,13.5,5.6c1.6,1.4,2.7,3.3,4,5c-0.9,1.3-1.8,2.6-2.7,3.8c-0.2,0.2-0.4,0.5-0.6,0.7l0,0
		c-0.2,0.2-0.5,0.3-0.7,0.6c-1.6,2.4-3.4,4.8-4.7,7.3c-2.4,4.9-4.1,10.1-5.4,15.4c-0.8,3.1-1.6,6.2-1.5,9.4c0,0.9,0.3,1.4,1.1,1.9
		c0.8,0.4,1.5,1.1,2.2,1.8c1.3,1.2,2.3,2.8,4.2,3.3c0.5,0.1,0.9,0.5,1.3,0.8c0,0.1,0,0.2-0.1,0.3c-1.6,0.4-3,0.4-4.5-0.5
		c-1.5-1-3.2-0.8-4.8-0.2c-3.2,1-5.5,3.2-7.8,5.5C33.7,163.4,32.7,163.6,30.5,162.7z"/>
	<path class="st6" d="M129.7,73.4c-1.7,3.4-3.3,6.8-5,10.1c-0.1,0.3-0.8,0.5-1.2,0.5c-0.7,0-1.4-0.2-2.1-0.5
		c-5.4-2.3-9.8-5.9-12.8-10.9c0.4-0.7,0.8-1.4,1.3-2.1c0.5-0.8,0.9-1.5,1.4-2.3c1.8-1.3,3-2.9,2.5-5.3c0.8-3.1,1.9-6.2,2.5-9.4
		c0.6-3,0.8-6.1,1-9.1c0.2-2.3,0.3-4.5,0.1-6.8c-0.1-1.3,0.1-1.7,1.3-2.1c1.7-0.6,2.4-2.3,1.6-3.5c-1.7-2.6-2.2-5.6-2.4-8.6
		c0-0.1,0.1-0.1,0.1-0.2c0.2-0.3,0.4-0.6,0.7-0.9c0,0,0,0,0,0c0.2,0,0.3,0,0.5,0c2.3-0.6,3.1,0.1,3.1,2.4c0,0.9,0.1,1.9,0.2,2.8
		c0.1,0.3,0.2,0.5,0.3,0.8c0,0.1,0.2,0.1,0.1,0.1c0.4-0.5,0.7-1.4,1.1-1.4c0.6,0,1.4,0.3,1.8,0.8c0.7,0.9,1.1,2.1,1.5,3
		c0.5-1.2-0.2-2.8-2.1-4.4c1.1-0.5,2.2-1.1,3.3-1.6c0,0.2,0,0.3,0,0.5c-0.1,0-0.3,0.1-0.3,0.1c-0.1,1.7-0.5,3.6-0.1,5.2
		c2.5,8.5,3.8,17.2,4,26.1c0.1,3.5-0.5,7-1.1,10.4C130.6,69,130.2,71.2,129.7,73.4z"/>
	<path class="st7" d="M119.9,142.5c-0.5,0.3-1.1,0.6-1.5,0.9c-3.5,3.1-7.4,5.4-11.8,7c-4.8,1.7-9.7,3.2-14.9,3
		c-9-0.4-17.4-2.3-24.3-8.6c-0.1-0.1-0.3-0.2-0.4-0.4c-0.3-0.7-0.6-1.3-0.9-2c0.6-0.2,1.2-0.6,1.9-0.7c3.6-0.7,7.2-1.4,10.8-2.2
		c0.6-0.1,1.2-0.5,1.7-0.7c3.9,0.1,7.7,0.4,11.6,0.4c9.3,0,18.2-1.7,26.9-5c1.2-0.5,2.4-1.1,3.7-1.7
		C122.4,136.2,121.6,139.5,119.9,142.5z"/>
	<path class="st7" d="M63.4,204.3c-0.8-0.4-1.6-0.8-2.5-1.2c0.8-2.3,1.7-4.6,2.5-6.9c1.9-5.3,3-10.8,3.7-16.3c0.3-3,0.4-6,0.5-9
		c0.1-2.4,0.2-4.8,0.3-7.2c0.1-1.4,0.8-2.1,2.2-2c1.9,0.2,3.8,0.5,5.8,0.8c1.3,0.1,2.6,0.2,3.9,0.2c0,0.1,0,0.3,0.1,0.4
		c-1,0.1-1,0.9-1,1.6c0,4.3,0.3,8.7-0.1,13c-0.4,4.7-1.4,9.3-2.2,13.9c-0.1,0.7-0.2,1.4-0.3,2.2c-1.1,2.9-2.2,5.7-3.4,8.6
		c-0.4,0.9-1,1.5-2.1,1.5C68.4,204.1,65.9,204.2,63.4,204.3z"/>
	<path class="st7" d="M104.1,200.8c-0.1-0.1-0.1-0.3-0.2-0.3c-1.7-0.8-1.7-0.8-1.2-2.6c2.3-7.8,3-15.9,2.5-24
		c-0.2-3.6-0.8-7.2-1.3-10.9c-0.3-2.3-0.2-2.9,1.6-4.1c2.4-1.6,4.8-3.2,7.2-4.8c0.3-0.2,0.6-0.2,0.9-0.4c0.1,0.7,0.1,1.4,0.2,2.1
		c1.7,7.4,2.9,14.9,2.7,22.6c-0.1,1.9-0.1,3.7-0.2,5.6c-0.1,1.4-0.2,2.8-0.3,4.2c-0.7,2.4-1.4,4.8-2.1,7.2c-0.3,1.2-0.7,2.4-0.9,3.7
		c-0.2,0.7-0.5,1.2-1.2,1.2C109.2,200.5,106.7,200.6,104.1,200.8z"/>
	<path class="st8" d="M60.3,114.3c-1,3.5-1.2,7.1-1,10.6c0.2,3.9,0.6,7.7,2.2,11.3c1.2,2.7,1.8,3.1,4.7,2.6
		c3.9-0.7,7.9-1.2,11.9-1.8c0.2,0,0.4,0,0.6,0c-2.7,0.7-5.4,1.7-8.2,2.2c-3.1,0.5-6.3,0.4-9.4,0.6c-0.3-0.1-0.5-0.4-0.8-0.4
		c-4.1-0.6-8-2-11.8-3.6c2.2-7.4,5.2-14.4,9.4-20.9C58.6,113.9,59.5,114.5,60.3,114.3z"/>
	<path class="st3" d="M51.7,89.1c0.6,0,1.3,0.1,1.9,0.1c0.4,0.1,0.8,0.2,1.2,0.4c0,0,0,0,0,0c0.2,0.3,0.4,0.6,0.7,0.8
		c2,1.1,3,3,4,4.9c1.9,3.9,2.6,8.1,2.5,12.4c0,0.4,0.1,0.9,0.2,1.4c-0.3,1.3-0.6,2.7-0.8,4c-0.5-3.7-2.6-6.3-5.2-8.7
		c-0.1-0.8-0.4-1.1-1.2-1l0,0c-0.3-0.4-0.4-0.8-0.8-1.1c-2.6-2.1-5.7-3.4-8.8-4.3c-1.8-0.5-2.1-1.3-1.1-2.9c1.6-2.5,3.6-4.5,6.4-5.5
		C51,89.4,51.3,89.2,51.7,89.1z"/>
	<path class="st4" d="M122.3,132c-0.9,0.5-1.7,1.1-2.6,1.4c-9.1,3.7-18.6,5.4-28.5,5.2c-2.7-0.1-5.3-0.2-8-0.4
		c0.3-0.1,0.6-0.3,1-0.4c6.2-2.2,12.3-4.4,18.6-6.5c5.2-1.7,10.5-2.3,15.8-0.8c1.3,0.3,2.5,0.8,3.7,1.2c0,0,0,0,0,0
		C122.3,131.8,122.3,131.9,122.3,132z"/>
	<path class="st9" d="M59.5,111.6c-1.3-1.7-2.4-3.6-4-5c-3.8-3.5-8.3-5.4-13.5-5.6c-1.5-0.1-2.5,0.7-3.3,1.8
		c-3,4.5-4.8,9.5-5.8,14.8c-0.7,3.5-1.4,7.1-2,10.6c-0.4,2.3-0.5,4.7-0.6,7c-0.3,4.7-0.5,9.4-0.8,14.1c0,0.4-0.2,0.8-0.4,1.1
		c-0.6,1.2-1.1,2.4-1.8,3.5c-0.6,0.9-1.4,1.6-2.1,2.4c-0.7,0.8-1.4,1.6-2.1,2.4c-0.2,0.2,0.1,0.7,0.1,1.1c0.3-0.1,0.7-0.2,1-0.3
		c1-0.6,2-1.3,3-1.9c-0.1,1.2-0.6,2-1.7,2.6c-1.1,0.6-2.1,1.6-3.3,2.1c-0.7,0.4-1.6,0.3-2.4,0.4c-0.1-0.1-0.2-0.2-0.3-0.3
		c0,0,0,0,0,0c-0.1-0.1-0.2-0.2-0.3-0.3c0,0,0,0,0,0c0.2-1.2,0.5-2.3,0.7-3.5l0,0c0.3-0.1,0.7-0.2,0.9-0.4c1.1-0.9,2.1-1.9,3.3-2.7
		c1.5-1.1,2.1-2.7,2.6-4.4c1-1.1,0.9-2.3,0.9-3.7c0-3.8,0.1-7.5,0.1-11.3c0.2-0.2,0.4-0.4,0.5-0.6c0.3-2.3,0.4-4.7,0.8-7
		c0.5-3.3,0.8-6.6,1.6-9.7c1.4-5.1,3.2-10.2,4.8-15.2c0.3-1,0.6-2,0.9-3.1c0,0,0,0,0,0c0.1-0.2,0.2-0.3,0.4-0.5c0,0,0.1-0.1,0.1-0.1
		c0.1-0.1,0.2-0.2,0.4-0.3c0.2,0,0.3,0,0.5-0.1c0.2,0,0.3-0.1,0.5-0.1c7.4-1.4,16.7,2.6,20.8,8.9c0.3,0.5,0.5,1,0.8,1.5
		C60.2,110.7,60.2,111.2,59.5,111.6z M28.5,145.1c-0.1,0-0.2,0-0.2,0c0,0.8,0,1.5,0,2.3c0.1,0,0.2,0,0.2,0
		C28.5,146.6,28.5,145.9,28.5,145.1z"/>
	<path class="st10" d="M61.9,58.1c-1.1-1.2-2.5-1-3.8-1c-0.4,0-0.8,0.1-1.2,0.1c0.1-0.2,0.2-0.5,0.2-0.7l0,0
		c0.1-0.1,0.2-0.2,0.2-0.2h0c1.7-0.6,3.4-1.2,5.3-1.9c-0.5-0.2-0.8-0.3-1.2-0.4c-0.5-1.3-1.8-1.5-2.9-1.7c-0.5-0.1-1.1,0-1.8-0.2
		c0.2-0.2,0.5-0.3,0.7-0.5c0.1-0.1,0.2-0.2,0.3-0.3l0,0c0.2-0.1,0.3-0.2,0.5-0.2h0c0.1,0,0.1,0.1,0.2,0.1c0.3,0,0.5,0,0.8,0
		c2.7,0.5,5.1,1.4,7.1,3.3c0.2,0.2,0.8-0.1,1.1-0.3c0.9-0.5,1.7-1.1,2.6-1.8c-0.9,2.4-1.7,4.5-2.5,6.8c0.5-0.1,0.7-0.1,0.8-0.2
		c1.3-0.9,1.5-0.8,1.8,0.7c0.1,0.3,0.2,0.6,0.2,0.9c0.4,1.8,1.1,3.5,2.5,4.8c0.2,0.5,0.4,0.9,0.5,1.4c-0.1,0-0.1,0.1-0.2,0.1
		c-2.9-1.7-3.1-4.8-3.8-7.7c-0.1,0-0.3-0.1-0.4-0.1c-0.7,1.1-1.4,2.2-2.2,3.2c-0.7-2.2,0.2-4.2,0.9-6.4c-1.9,1.8-2.3,6.4-0.8,7.8
		c0.6-1.1,1.2-2.2,1.9-3.3c0.5,2.6,1.4,4.8,3.1,6.6c-0.3,0.3-0.7,0.5-1,0.8c-1.4-1-2.8-1-4.2-0.2c-1.6,1-2.1,2.6-1.7,4.2
		c0.3,1.3-0.1,2.1-0.9,2.9c-0.2-0.7-0.3-1.4-0.6-2.1c-0.1-0.4-0.4-0.7-0.6-1c-0.2,0.3-0.6,0.7-0.5,0.9c0.2,1.5-0.7,2.5-1.4,3.7
		c-0.9-1.8-1.1-3.8-0.9-5.7c0.2-1.5,1-3,1.4-4.5c0.1-0.3,0-0.8,0-1.1c0.5-0.8-0.3-0.5-0.4-0.4c-0.8,0.5-1.6,1.1-2.4,1.7
		c0.6-1.7,1.2-3.5,1.9-5.2C61.1,60,61.5,59,61.9,58.1z"/>
	<path class="st11" d="M73,65.3c-1.4-1.3-2.1-2.9-2.5-4.8c-0.1-0.3-0.1-0.6-0.2-0.9c-0.4-1.5-0.5-1.6-1.8-0.7
		c-0.1,0.1-0.2,0.1-0.8,0.2c0.9-2.4,1.7-4.5,2.5-6.8c-0.9,0.6-1.7,1.2-2.6,1.8c-0.3,0.2-1,0.4-1.1,0.3c-2-1.9-4.5-2.8-7.1-3.3
		c0.3-0.1,0.6-0.3,0.9-0.3c1.7,0.4,3.4,0.8,5,1.2c0.4,0.1,0.8,0.3,1.2,0.4c1.3-1,2.5-2,3.8-2.8c0.5-0.3,1.3-0.4,2.2-0.7
		c-1.1-0.4-2-0.8-3-1.1c0.4-0.2,0.9-0.6,1.3-0.6c1.7-0.1,3.3-0.1,5,0.1c0.6,0,0.7-0.1,0.7-0.6c-0.2-0.4-0.3-0.8-0.5-1.2
		c0.9,0.2,1.7,0.3,2.6,0.5c0.6,0.2,0.8,0.1,0.8-0.5c0-0.4,0.1-0.8,0.1-1.2c0.1-0.2,0.2-0.3,0.4-0.5l0,0c0.1-0.1,0.2-0.2,0.3-0.2l0,0
		c0.1-0.2,0.2-0.3,0.2-0.5c0,0,0,0,0,0c0.7-0.3,1.4-0.7,2.1-1c0.3-0.1,0.7,0,1,0.1c-0.2,1.1-0.3,2.3-0.5,3.4c0,0.1,0,0.1,0,0.2
		c0,0-0.1,0.1-0.1,0.1c0,0,0.1-0.1,0.1-0.1c1.4-0.2,2.9-0.5,4.3-0.7c-0.9,1.5-2,2.5-3.8,2.8c-0.7,0.1-1.4,0.6-2,1.2
		c0.1,0,0.3,0,0.4,0c-0.4,0.5-0.8,1-1.2,1.5c-2.3,1.4-2.4,3.8-2.7,6.1c-0.1,0-0.3,0-0.4,0.1c-0.6-1.5-1.2-3.1-1.8-4.9
		c0,0.8,0,1.4,0,2c-0.2,0.2-0.3,0.3-0.5,0.5c-0.2,0.1-0.5,0.1-0.6,0.2c-0.5,1-1.2,2-1.3,3C73,60.1,73,62.7,73,65.3z"/>
	<path class="st12" d="M102.7,210.7c7,1.5,14,2.2,21.1,1.6c3-0.3,6.1-0.7,9.3-1.1c-0.3,1-0.4,2.1-0.8,3.1c-0.1,0.4-0.8,0.6-1.2,0.7
		c-4.9,0.8-9.8,1.1-14.8,0.8c-2.9-0.2-5.8-0.6-8.7-0.9c-0.2-0.3-0.3-0.7-0.6-0.8C105.3,213.4,104.1,211.9,102.7,210.7z"/>
	<path class="st13" d="M89.5,216.5c-5.5,1.2-11.1,1.2-16.7,0.9c-0.1-2.9,2.6-6.4,5.9-7.7c0.5,0.3,1.1,0.5,1.6,0.8
		c2.5,1.3,5.1,2.6,7.6,4.1C88.6,215,89,215.9,89.5,216.5z"/>
	<path class="st3" d="M79.6,98.1c-3.3-0.7-5.1-0.1-8.2,2.5c-1.6-2.4-3.2-4.8-4.9-7.1c-0.1-0.4-0.2-0.9-0.4-1.3
		c-1-2.6-2.1-5.1-3.1-7.7c-0.4-0.9-0.3-1.6,0.5-2.2c3.3,6.1,8.7,10.2,14.2,14c0.7,0.5,1.4,0.9,2.1,1.4C79.7,97.8,79.6,98,79.6,98.1z
		"/>
	<path class="st9" d="M70.8,74.9c-0.1,0.2-0.2,0.6-0.4,0.7c-1.2,0.4-1.3,1.4-1.3,2.5c0,2.4-0.1,4.7,0.9,6.9c1.4,2.8,2.9,5.6,5.3,7.6
		c1,0.9,2,1.8,3,2.7c0.2,0.2,0.2,0.5,0.3,0.7c-6.6-4.3-12.8-9-15.7-16.9c-0.5-1.3-0.7-2.6-1-3.9c0.1,0,0.3-0.1,0.4-0.1
		c0.4,0.7,0.8,1.5,1.3,2.4c0.7-1.5,1.3-2.7,1.9-4C67.1,75.3,68.8,75.7,70.8,74.9z"/>
	<path class="st9" d="M118,23.3c0.2,3,0.7,6,2.4,8.6c0.8,1.2,0,2.9-1.6,3.5c-1.2,0.4-1.4,0.8-1.3,2.1c0.2,2.2,0,4.5-0.1,6.8
		c-0.2,3-0.4,6.1-1,9.1c-0.6,3.2-1.6,6.3-2.5,9.4c-0.4-0.5-0.9-0.9-1.3-1.4c2.7-8.6,3.5-17.4,1.7-26.3c0.4-0.9,0.9-1.4,2-1.3
		c0.5,0,1.1-0.3,1.5-0.5c0.8-0.4,1-1,0.7-2c-0.4-1.8-0.8-3.7-0.9-5.6C117.4,24.9,117.8,24.1,118,23.3z"/>
	<path class="st14" d="M51.2,138.7c0.3,1.3,0.5,2.7,1,4c1.1,3.1,2.7,5.9,4.9,8.4c1.7,1.8,2.3,4.1,3,6.3c1.6,5.1,2.2,10.3,2.4,15.6
		c0.3,6.3-0.4,12.3-2.6,18.2c-1,2.7-1.9,5.4-3,8c-1.1,2.6-1.3,2.6,1.2,4.2c0.1,0.1,0.1,0.2,0.2,0.3c-1-0.3-1.9-0.5-2.9-0.8
		c-0.9-0.3-1.1-0.8-0.7-1.7c1.7-4.2,3.4-8.4,4.9-12.7c1.5-4.2,2.3-8.6,2.2-13c-0.1-5.9-1-11.8-2.7-17.5c-0.2-0.5-0.4-1-0.4-1.5
		c-0.3-2.7-2.3-4.2-3.9-6.1c-2.7-3.2-4.3-7-5-11.1c-0.1-0.3,0-0.6,0-1.1C50.3,138.4,50.7,138.5,51.2,138.7z"/>
	<path class="st12" d="M90.4,54.1c0-3.3,3.5-5.7,7.2-4.9c2.3,0.5,3.8,2.5,3.6,4.8c0,0.4-0.2,0.9-0.5,1.1c-1.3,0.9-2.6,1.9-4,2.7
		C93.5,59.5,90.4,57.7,90.4,54.1z M100.1,51.7c-0.8-0.5-1.2-1-1.6-1.1c-0.3,0-0.7,0.6-1,0.9c0.4,0.4,0.7,0.9,1.2,1
		C98.9,52.7,99.3,52.2,100.1,51.7z"/>
	<path class="st12" d="M62.4,216.4c5.3,1.2,10.7,2.1,16.1,1.9c3.7-0.2,7.4-0.7,11.2-1.1c0.3,0,0.6-0.1,0.9-0.1c0.3,2.4,0,3-2.3,3.3
		c-6.7,1-13.5,1.2-20.2,0c-0.4-0.3-0.7-0.6-1.1-0.8C65.2,218.8,63.6,218,62.4,216.4z"/>
	<path class="st13" d="M131.9,210.6c-5.3,1-10.6,1.3-16.1,1.2c1.2-3.4,3.5-5.6,6.8-6.6c1.1,0.5,2.2,0.9,3.3,1.4
		C128.1,207.5,130.3,208.7,131.9,210.6z"/>
	<path class="st9" d="M122.3,131.7c-1.2-0.4-2.5-0.8-3.7-1.2c-5.4-1.5-10.6-0.9-15.8,0.8c-6.2,2.1-12.4,4.3-18.6,6.5
		c-0.3,0.1-0.6,0.3-1,0.4c-1.4-0.1-2.8-0.2-4.1-0.3c0-0.1,0-0.1-0.1-0.2c0.3-0.1,0.6-0.2,0.9-0.3c6.9-2.3,13.7-4.8,20.6-7
		c5.6-1.9,11.4-2.6,17.2-1C119.4,129.8,121.1,130.3,122.3,131.7z"/>
	<path class="st15" d="M129.7,73.4c0.4-2.2,0.9-4.4,1.3-6.5c0.6-3.4,1.2-6.9,1.1-10.4c-0.2-8.9-1.5-17.5-4-26.1
		c-0.5-1.6,0-3.4,0.1-5.2c0-0.1,0.2-0.1,0.3-0.1c-0.1,4.2,2,7.9,2.8,11.9c1.6,7.7,2.7,15.4,1.8,23.3
		C132.6,64.8,131.6,69.2,129.7,73.4z"/>
	<path class="st15" d="M52.7,156.7c-0.4-0.3-0.8-0.7-1.3-0.8c-1.9-0.5-2.9-2-4.2-3.3c-0.7-0.7-1.4-1.4-2.2-1.8
		c-0.8-0.4-1.1-1-1.1-1.9c-0.1-3.2,0.7-6.3,1.5-9.4c1.4-5.3,3-10.5,5.4-15.4c1.3-2.6,3.1-4.9,4.7-7.3c0.2-0.2,0.5-0.4,0.7-0.6
		c-0.4,0.8-0.8,1.5-1.2,2.3c-5.1,9.3-8.6,19.2-9.7,29.9c-0.1,0.8,0.2,1.2,0.8,1.7c1.1,0.9,2.1,1.9,3.2,2.9c0.8,0.6,1.5,1.2,2.4,1.8
		C52.4,155.2,53,155.7,52.7,156.7z"/>
	<path class="st8" d="M67.2,96.2c-0.6-0.5-1.3-0.8-1.7-1.4c-1.9-3.1-3.8-6.2-5.6-9.4c-0.5-0.9-0.9-1.2-1.8-0.6
		c-1.6,0.9-3,1.8-3.6,3.7c-0.7-0.1-1.4-0.2-2.2-0.3c1.9-4.1,4.3-7.7,7.7-10.7c0.7,6.5,3.3,12.2,6.6,17.7
		C66.9,95.5,67.1,95.9,67.2,96.2z"/>
	<path class="st12" d="M71.9,217.3c-1.4-0.2-2.7-0.4-4-0.5c0.1-6.5,6.5-12,12.7-8.2C75.7,209.5,73,212.6,71.9,217.3z"/>
	<path class="st8" d="M107.3,71.8c0,0.2-0.1,0.5,0,0.7c0.7,1.2-0.1,2-0.8,2.9c-0.4,0.5-0.7,1.1-1.2,1.6c-1.3,1.4-0.9,2.7-0.1,4.1
		c0.5,0.8,0.7,1.6,1.1,2.5c-1.8-1.7-3.5-3.3-5.3-5c-0.2-0.2-0.4-0.6-0.5-1c-0.1-0.4,0.1-0.8,0-1.2c-0.2-1,0.2-1.6,0.9-2.4
		c0.8-0.9,1-2.2,1.6-3.6c0.9-0.1,2.3-0.3,3.7-0.5c0.2,0.6,0.4,1.1,0.6,1.7C107.2,71.6,107.3,71.7,107.3,71.8L107.3,71.8z"/>
	<path class="st16" d="M98.3,200.8c2.5,0.3,5.1,0.6,7.4,0.9c-0.9,0.9-2.1,1.9-2.9,3.2c-0.8,1.3-1.1,2.9-1.8,4.6
		c-1.7-0.7-3.6-1.4-5.4-2.1c0.4-1.1,0.8-2.3,1.2-3.4C97.4,203,97.9,201.9,98.3,200.8z"/>
	<path class="st17" d="M122.1,17.6c0.4-1.4,0.2-1.6-1.3-1.3c-0.1-0.4-0.2-0.8-0.2-1c0.7-0.5,1.6-0.7,2.1-1.3
		c0.4-0.6,0.4-1.6,0.5-2.5c2.5,1,4.5,2.6,5.5,5.4c0.1,0.4,0.1,1-0.2,1.3c-1.7,2.6-3.5,5.2-5.3,7.8c-0.1,0-0.2-0.1-0.3-0.1
		c0.9-1.8,1.9-3.6,2.8-5.5c-0.6-0.2-1.1-0.4-1.6-0.6C123.5,19.1,122.8,18.3,122.1,17.6z"/>
	<path class="st18" d="M124.5,132.2c-0.3-1.5-0.6-2.9-1-4.4c-1-3.4-2.7-6.5-4.9-9.3c-2.1-2.8-4.4-5.3-7.1-7.5
		c-1-0.8-1.4-1.8-1.4-3.1c-0.1-3.3-0.9-6.5-2.2-9.6c-0.2-0.4-0.2-0.9-0.4-1.3c2.5,2.7,3.7,5.9,3.7,9.5c0,1.5,0.4,2.5,1.6,3.5
		c5.7,4.7,9.4,10.8,11.2,17.9C124.4,129.3,124.3,130.8,124.5,132.2z"/>
	<path class="st8" d="M50.7,89.6c-2.8,1-4.8,3-6.4,5.5c-1,1.6-0.7,2.3,1.1,2.9c3.2,1,6.2,2.3,8.8,4.3c0.3,0.3,0.5,0.7,0.8,1.1
		c-2.4-1.2-4.8-2.6-7.3-3.5c-3.3-1.2-6.9-1.4-10.4-0.6c2.1-3.6,5.3-6.1,8.7-8.2c1.2-0.7,2.5-1.1,3.7-1.7l0,0
		C50,89.4,50.4,89.5,50.7,89.6z"/>
	<path class="st14" d="M97.6,160c1.3,3.2,2.3,6.5,2.9,9.9c0.9,5.2,0.9,10.3-0.1,15.5c-0.8,3.7-1.7,7.3-3.2,10.8
		c-0.9,2-0.2,3.1,1.9,3.8c0.3,0.1,0.6,0.2,1,0.4c-1.2-0.3-2.5-0.5-3.7-0.8c-0.8-0.2-1-0.7-0.7-1.6c1-2.9,2-5.8,2.8-8.8
		c1.1-4,1.9-8.1,1.8-12.4c-0.1-5.4-1.2-10.6-3.4-15.5C96.6,160.5,96.6,160,97.6,160z"/>
	<path class="st12" d="M115.2,211.8c-1.4-0.1-2.9-0.2-4.4-0.4c0.5-2.9,2.1-5,4.4-6.4c2.5-1.5,5.1-2.4,8-0.6
		C119.4,205.5,116.4,207.7,115.2,211.8z"/>
	<path class="st13" d="M73.7,207.2c-4.1,1.9-5.3,3.7-6.6,9.5c-1.1-0.2-2.3-0.4-3.4-0.7c-0.1-4.5,3.5-9.4,7.9-9.9
		C72.3,206.5,73,206.9,73.7,207.2z"/>
	<path class="st16" d="M57.9,204.4c1.8,0.3,3.5,0.6,5.4,0.9c-3.3,2.1-4.6,5.3-4.8,9.3c-1.5-0.7-2.9-1.4-4.3-2
		c0.2-0.4,0.4-0.8,0.5-1.1C55.8,209.1,56.8,206.7,57.9,204.4z"/>
	<path class="st2" d="M102.7,210.7c1.4,1.3,2.6,2.7,4.4,3.4c0.3,0.1,0.4,0.5,0.6,0.8c-4.6-0.7-9.1-1.8-13.4-3.8
		c-1-0.5-1.2-1-0.9-1.9c0.2-0.6,0.3-1.1,0.4-1.6C96.8,208.6,99.8,209.6,102.7,210.7z"/>
	<path class="st13" d="M116.7,203.5c-2,1-3.9,2.2-5.1,4.2c-0.6,1.1-1,2.2-1.6,3.5c-1.2-0.2-2.5-0.4-3.8-0.6c0-3.3,4.2-8.2,8.5-8.6
		C115.4,202.6,116,203.1,116.7,203.5z"/>
	<path class="st19" d="M116,188.3c0.1-1.4,0.2-2.8,0.3-4.2c0.1-1.9,0.2-3.7,0.2-5.6c0.2-7.7-0.9-15.2-2.7-22.6
		c-0.2-0.7-0.2-1.4-0.2-2.1c0.1-0.1,0.2-0.2,0.3-0.4c0.2,0.3,0.4,0.7,0.5,1c2.2,7.6,3.7,15.3,3.2,23.2
		C117.5,181.3,116.6,184.8,116,188.3z"/>
	<path class="st2" d="M62.4,216.4c1.2,1.6,2.8,2.4,4.6,3.1c0.4,0.2,0.7,0.5,1.1,0.8c-4.4-0.6-8.6-1.7-12.6-3.4
		c-2.7-1.1-2.7-1.1-2.3-3.9C56.2,214.1,59.3,215.3,62.4,216.4z"/>
	<path class="st9" d="M30.5,162.7c2.2,1,3.2,0.8,5-1c2.3-2.3,4.7-4.5,7.8-5.5c1.6-0.5,3.3-0.8,4.8,0.2c1.4,0.9,2.9,0.9,4.5,0.5
		c-0.5,1.3-1.8,2-3.4,1.6c-0.8-0.2-1.7-0.5-2.4-1c-1.4-0.7-2.7-0.8-4.1-0.2c-2.7,1.2-4.7,3.2-6.5,5.4c-0.5,0.6-0.9,1.2-1.4,1.7
		c-0.8,0.8-1.7,1.3-2.8,0.8C30.9,164.8,30.5,163.9,30.5,162.7z"/>
	<path class="st12" d="M112,202.3c-3.4,1.8-5.7,4.4-6.5,8.3c-1.2-0.3-2.3-0.5-3.5-0.8c0.5-2.9,1.2-5.5,3.8-7.1
		c0.3,0.1,0.7,0.4,1,0.4C108.5,202.8,110.3,202.6,112,202.3z"/>
	<path class="st20" d="M36.5,100.8c-0.3,1-0.6,2-0.9,3.1c-1.6,5.1-3.4,10.1-4.8,15.2c-0.9,3.2-1.2,6.5-1.6,9.7
		c-0.3,2.3-0.5,4.7-0.8,7c0,0.2-0.3,0.4-0.5,0.6c0-12.1,2.3-23.5,7.8-34.3C36,101.6,36.2,101.2,36.5,100.8z"/>
	<path class="st19" d="M76.3,193.9c0.1-0.7,0.2-1.4,0.3-2.2c0.8-4.6,1.8-9.3,2.2-13.9c0.4-4.3,0.1-8.7,0.1-13c0-0.7,0-1.5,1-1.6
		c1.2,10,0.4,19.7-2.9,29.2C76.8,192.9,76.6,193.4,76.3,193.9z"/>
	<path class="st12" d="M92.2,73.2c-0.9,1.4-2.1,2-3.7,1.6c-0.6-0.1-0.9-0.1-1.3,0.4c-0.9,0.9-2,0.9-3.4,0.1c4.1-2.8,8.6-4,13.4-4.5
		C97,73.1,95,74.1,92.2,73.2z"/>
	<path class="st9" d="M28,156.9c0.6-0.2,0.7,0.1,0.7,0.7c-0.1,1.6-0.2,3.2-0.2,4.9c0,0.7,0.1,1.5,0.3,2.2c0.3,1.3,1.2,1.6,2.1,0.9
		c0.7,0.2,1.3,0.4,2,0.6c0.3,1.7-0.1,2.9-1.2,3.2c-1.5,0.5-3-0.3-3.7-1.9c-0.8-2-0.8-4.1-0.6-6.3C27.5,159.8,27.7,158.4,28,156.9z"
		/>
	<path class="st21" d="M113.7,29.8c-0.5-0.2-1.1-0.5-1.6-0.7c-0.2-0.1-0.4,0-0.8,0c0.4,0.3,0.6,0.5,0.8,0.6c0,0-0.1,0.1-0.1,0.1
		c-0.7,0-1.3-0.1-1.9-0.1c-0.2-0.8-0.4-1.5-0.6-2.2c-0.5-1.8,0.1-3.3,1.6-4.5c0.2,0.1,0.5,0.2,0.7,0.3c0.3,0.4,0.4,1,0.8,1.2
		c1.1,0.8,2.2,1.5,3.4,2.3c-0.1,0.7-0.1,1.4-0.3,2c-0.2,0.4-0.7,0.6-1.1,0.8C114.2,29.8,113.9,29.8,113.7,29.8z M111.6,28.3
		c-0.4-1.2-0.7-2.3-1-3.4c-0.8,0.7-1,1.7-0.6,2.6C110.3,28.2,110.8,28.6,111.6,28.3z"/>
	<path class="st12" d="M68.2,205.1c1,0.1,2,0.1,3,0.2c-5.3,1.6-7.5,5.5-8.4,10.6c-0.4-0.1-0.8-0.2-1.1-0.4c-0.1-0.9-0.3-1.8-0.2-2.7
		c0.5-3.5,2.4-6,5.9-7.1C67.7,205.5,67.9,205.3,68.2,205.1z"/>
	<path class="st2" d="M68.2,205.1c-0.2,0.2-0.5,0.5-0.7,0.6c-3.5,1.1-5.4,3.6-5.9,7.1c-0.1,0.9,0.1,1.8,0.2,2.7
		c-0.8-0.2-1.7-0.4-2.6-0.6c0.1-2.6,0.6-4.9,2.1-6.9C63,205.8,65.3,204.7,68.2,205.1z"/>
	<path class="st18" d="M62.2,109c-0.1-0.5-0.2-0.9-0.2-1.4c0.1-4.3-0.6-8.5-2.5-12.4c-0.9-1.9-1.9-3.8-4-4.9
		c-0.3-0.1-0.4-0.5-0.7-0.8c3.2,1,5.4,3.2,6.6,6.3C63,100.1,63,104.5,62.2,109z"/>
	<path class="st22" d="M89.5,216.5c-0.5-0.7-0.9-1.6-1.6-2c-2.5-1.5-5.1-2.8-7.6-4.1c-0.5-0.3-1-0.5-1.6-0.8
		c1.8-0.7,3.5-0.8,5.1,0.2c1.6,1,3.3,1.8,4.7,3c1,0.8,1.6,2,2.6,3.2C90.3,216.4,89.9,216.5,89.5,216.5z"/>
	<path class="st9" d="M102.2,107.6c-0.6-4.4-0.9-8.8-1.8-13.2c-0.7-3.1-2.1-6.1-3.2-9.2c0.3-0.3,0.5-0.7,0.8-1.1
		c1.8,3,2.7,6.2,3.4,9.5c0.9,4.2,1.2,8.5,1,12.7C102.4,106.8,102.3,107.2,102.2,107.6z"/>
	<path class="st23" d="M107.7,33c0.5-0.9,1-2,1.7-2.7c0.3-0.3,1.3-0.1,1.9,0c0.4,0,0.8,0.1,1.2,0.1l0,0c0.2,0.2,0.5,0.3,0.7,0.5l0,0
		c0.6,0.9,0.1,1.5-0.5,2.2c-0.1,0.1-0.1,0.3-0.2,0.4l0,0c-1.3,0.3-1.5,1.5-2.1,2.4c-0.4-0.1-0.8-0.2-1.2-0.2l0,0
		c-0.1-0.1-0.2-0.2-0.2-0.2l0,0c-0.1-0.1-0.2-0.2-0.2-0.2l0,0C108.3,34.4,108,33.7,107.7,33L107.7,33z"/>
	<path class="st9" d="M70.6,71.8c-1.3,1.1-1.3,1.6,0.2,2.4c0.6,0.3,0.8,0.5,0,0.7c-0.2-0.1-0.4-0.3-0.5-0.3
		c-3.1,0.6-5.2-1.5-4.5-4.5c0.3-1.1,0.9-1.9,2.1-2.2c0.1,0.7,0.2,1.4,0.3,2.1c-0.4,0.4-0.8,0.7-1.2,1.1c0.1,0.1,0.1,0.2,0.2,0.2
		c0.3-0.2,0.7-0.4,1.2-0.7c0,0.8-0.1,1.5,0.8,1.8c-0.1-0.7-0.2-1.3-0.2-1.8c0.1-0.1,0.3-0.2,0.4-0.2C69.7,70.9,70.2,71.3,70.6,71.8z
		"/>
	<path class="st20" d="M114.2,35.1c1.9,8.9,1,17.7-1.7,26.3c-0.3-0.1-0.6-0.1-0.9-0.2c0.7-2.2,1.5-4.4,1.9-6.6
		c1.2-6.1,1.3-12.2,0.3-18.3C113.8,36,114.1,35.6,114.2,35.1z"/>
	<path class="st24" d="M49.7,89.3c-1.3,0.6-2.6,1-3.7,1.7c-3.5,2.1-6.6,4.6-8.7,8.2c-0.6,0.3-1.3,0.5-2.1,0.8
		c0.3,0.2,0.5,0.3,0.6,0.4l0,0c-0.1,0.2-0.2,0.5-0.3,0.7c-0.1,0-0.3,0-0.4,0c0-0.4-0.2-0.9,0-1.2c3.1-5.2,7.5-8.8,13.4-10.5
		C48.9,89.2,49.3,89.3,49.7,89.3z"/>
	<path class="st14" d="M79.9,162.4c-0.4-0.7-0.2-1.1,0.7-1.2c1.3-0.1,2.5-0.4,3.8-0.5c4.8-0.2,9.4-1.1,14-2.3c0.2-0.1,0.5,0,0.7,0.1
		c-5.6,2.4-11.4,3.6-17.5,3.4C81,162,80.4,162.3,79.9,162.4z"/>
	<path class="st4" d="M119.5,15.2c0.1,0.4,0.2,0.8,0.3,1.3c-1.2-0.1-2.3-0.2-3.5-0.2c-0.4,0-0.8,0.1-1.1,0.1
		c-1.6-0.3-3.2-0.7-4.9-1.1c0.1-0.3,0.3-0.9,0.4-1.5c1.5,0,3.1-0.2,4.6,0c1.2,0.2,2.3,1,3.5,1.4C118.9,15.4,119.3,16.1,119.5,15.2z"
		/>
	<path class="st20" d="M105.3,61.2c0.1,1.2-0.5,1.9-1.6,2.1c-1,0.2-2,0.3-2.9,0.2c-0.4,0-0.9-0.5-1.1-0.9c-0.1-0.2,0.2-0.8,0.4-1.1
		c0.4-0.4,0.9-0.8,1.4-1.1c1.4-0.9,2.9-1.8,4.3-2.7c0.2-0.1,0.4-0.2,0.6-0.3c0,1.3-0.8,2.2-1.8,2.9c-1.2,0.7-2.4,1.4-3.5,2.2
		c1.6,0,2.7-1.1,4-1.8C105.1,61.1,105.2,61.2,105.3,61.2z"/>
	<path class="st15" d="M94.1,48.6c-2-0.5-3.4,0.5-4.9,1.7c-0.6-1.4-1.9-1.4-3.1-1.5c-1.3-0.1-2.5,0-3.8-0.1c2.4-1.2,5-1.3,7.7-0.9
		c-0.2,0.4-0.4,0.8-0.6,1.1c2.2-1.4,4.4-3,6.9-0.6C95.6,48.4,94.9,48.5,94.1,48.6z"/>
	<path class="st24" d="M60,77.6c-3.4,2.9-5.8,6.6-7.7,10.7c-0.4,0-0.9,0-1.5,0c2-4.6,4.9-8.4,9-11.5C59.9,77.1,60,77.3,60,77.6z"/>
	<path class="st4" d="M116.4,18.5c-0.1,0.7-0.1,1.4-0.2,2c-0.1-0.1-0.1-0.2-0.2-0.2c0.1-0.2,0.1-0.3,0.3-0.6
		c-0.4,0.1-0.7,0.2-0.9,0.2c-2.3,0.2-4.6,0.6-6.3-1.5c-0.1,0-0.1,0-0.2,0c0.1-0.3,0.3-0.7,0.4-1c2.3-0.4,4.4-0.1,6.4,1.2
		C115.9,18.7,116.2,18.5,116.4,18.5z"/>
	<path class="st17" d="M117.5,21.7c0,0.3,0.1,0.5,0,0.8c-0.3,1.4-0.7,2.8-1.1,4.2c-1.2-0.8-2.7-1.8-4.2-2.8c0.9-1.9,1.6-2.2,3.7-1.9
		C116.5,22,117,21.8,117.5,21.7C117.5,21.7,117.5,21.7,117.5,21.7z"/>
	<path class="st8" d="M63.5,82.3c-0.8,0.6-0.9,1.3-0.5,2.2c1.1,2.6,2.1,5.1,3.1,7.7c0.2,0.4,0.3,0.9,0.4,1.3
		c-2.8-4.5-4.8-9.3-5.6-14.6c-0.1-0.7,0.5-1.4,0.7-2.1C62.2,78.7,62.9,80.5,63.5,82.3z"/>
	<path class="st21" d="M124,8.8c2.3,0,5.2,2.2,5.8,4.5c-0.3,0.6-0.7,1.3-1,1.9c-0.4-0.4-0.8-0.9-1.2-1.3c-1.4-1.6-3-2.8-5.1-3.3
		c-0.5-0.1-0.9-0.6-1.6-1c0.5-0.3,0.9-0.6,1.2-0.8c-0.3,0.7-0.1,1,0.6,1.2c1,0.3,2,0.7,3,1.1c0.5,0.2,1,0.5,1.5,0.8
		c0.1-0.1,0.2-0.2,0.3-0.2c-0.2-0.3-0.3-0.8-0.6-1C125.9,9.9,124.9,9.4,124,8.8z"/>
	<path class="st21" d="M109.1,35.6c0.3,0.2,0.5,0.5,0.8,0.7c-1.1,1.1-1.9,2.7-3.9,2c-0.4-0.1-0.7-0.2-1.5-0.5
		c1.1-1.7,2.2-3.3,3.2-4.9l0,0c0.3,0.7,0.6,1.4,1,2.2l0,0c0.1,0.1,0.2,0.2,0.2,0.2l0,0C109,35.4,109.1,35.5,109.1,35.6L109.1,35.6z"
		/>
	<path class="st18" d="M109,89.7c-0.2-0.1-0.4-0.1-0.6-0.3c-1.5-1.9-2.9-4-4.5-5.8c-1.1-1.2-2.6-2.1-3.9-3.2
		c0.1-0.5,0.2-0.9,0.3-1.5C104.2,81.8,107.2,85.2,109,89.7z"/>
	<path class="st22" d="M131.9,210.6c-1.6-1.9-3.8-3.1-6.1-4.1c-1.1-0.5-2.2-0.9-3.3-1.4c1.1-0.5,2.1-0.5,3.2,0.1
		c1.9,1.1,3.8,2.1,5.7,3.2c0.6,0.4,1.1,1.1,1.9,1.9C132.6,210.5,132.3,210.6,131.9,210.6z"/>
	<path class="st25" d="M113.7,29.8c0.2,0,0.5,0,0.7-0.1c0.4-0.2,1-0.4,1.1-0.8c0.2-0.6,0.2-1.3,0.3-2c0.4,0.7,0.9,1.3,1.2,2.1
		c0.4,0.9,0.5,2,0.8,3c-1.1,0.3-2.2,0.7-3.3,1c-0.1-0.6-0.2-1.1-0.3-1.7l0.1-0.1c0.1-0.2,0.3-0.4,0.2-0.5
		C114.2,30.4,113.9,30.1,113.7,29.8z"/>
	<path class="st15" d="M105.3,61.2c-0.1-0.1-0.2-0.2-0.2-0.3c0.8,0.1,1.7,0.1,2.5,0.3c1.2,0.2,2.4,0.4,3.6,0.6
		c1.8,0.3,2.4,1.2,1.8,2.8c-0.3,0.9-1.2,1.6-1.8,2.4c0.1-0.5,0.3-1.1,0.4-1.6c0.2-1,0.1-1.9-0.9-2.3C109,62.5,107.1,61.9,105.3,61.2
		z"/>
	<path class="st4" d="M119,13.3c-0.6-0.4-1.2-0.8-1.8-1.2c-0.6-0.3-1.2-0.5-2.1-0.8c0.3-0.4,0.6-0.8,0.8-1.2
		c1.5-0.1,2.9,0.4,4.1,1.1c0.8,0.5,1.5,1.1,2.3,1.6c0,0.2-0.1,0.3-0.1,0.5C121.2,13.3,120.1,13.3,119,13.3z"/>
	<path class="st15" d="M119.5,15.2c-0.2,0.9-0.6,0.2-0.8,0.1c-1.2-0.5-2.3-1.2-3.5-1.4c-1.5-0.2-3,0-4.6,0c0.4-0.4,0.8-0.9,1.3-1.2
		C114.4,11.3,118.1,12.6,119.5,15.2z"/>
	<path class="st26" d="M98.3,200.8c-0.5,1.1-1,2.1-1.4,3.2c-0.4,1.1-0.8,2.3-1.2,3.4c-0.5-0.2-1.1-0.4-1.9-0.8c1.1-2,2-3.9,3-5.8
		C97.2,200.2,97.8,200.6,98.3,200.8z"/>
	<path class="st26" d="M57.9,204.4c-1,2.4-2.1,4.7-3.1,7.1c-0.2,0.4-0.4,0.8-0.5,1.1c-0.8-0.2-0.9-0.6-0.7-1.4
		c0.5-2.1,1.1-4.1,2.4-5.8C56.4,204.8,56.8,203.9,57.9,204.4z"/>
	<path class="st21" d="M61.6,64.8c0,0.4,0.1,0.8,0,1.1c-0.5,1.5-1.3,3-1.4,4.5c-0.2,1.9,0,3.9,0.9,5.7c-0.1,0.2-0.1,0.4-0.3,0.8
		c-1.1-1.2-1.5-2.6-1.6-4C58.9,70,59.2,67.1,61.6,64.8z"/>
	<path class="st9" d="M128.5,24.6c-1.1,0.5-2.2,1.1-3.3,1.6c-0.3-0.1-0.6-0.3-1-0.4c1.1-1.7,2.2-3.2,3.3-4.8c0.1,0,0.3,0,0.4,0
		C128.1,22.2,128.3,23.4,128.5,24.6z"/>
	<path class="st15" d="M106.4,57.6c-0.2,0.1-0.4,0.2-0.6,0.3c-0.2-1.6-1.5-2.5-3-1.9c-1.4,0.6-2.7,1.4-4.1,2
		c-0.7,0.3-1.4,0.4-2.1,0.6c1.5-1,3-2,4.5-3c0.4-0.3,0.8-0.5,1.2-0.7C104.4,53.8,106.4,55.1,106.4,57.6z"/>
	<path class="st21" d="M61.9,58.1c-0.4,1-0.8,1.9-1.2,2.9c-0.6,1.7-1.3,3.5-1.9,5.2c-0.3,0.4-0.7,0.9-1,1.3
		C57,64.9,59,60.4,61.9,58.1z"/>
	<path class="st24" d="M48.6,135.8c3.8,1.6,7.7,3,11.8,3.6c0.3,0,0.6,0.3,0.8,0.4c-4.5-0.2-8.7-1.3-13-3
		C48.3,136.5,48.4,136.2,48.6,135.8z"/>
	<path class="st8" d="M99,82.8c0.6,1.3,1.4,2.5,1.8,3.8c1.2,3.5,2,7.1,2.1,10.9c-0.5-2.2-0.7-4.4-1.4-6.5c-0.7-2.3-1.7-4.5-2.7-6.7
		C98.5,83.7,98.5,83.2,99,82.8z"/>
	<path class="st2" d="M112,202.3c-1.7,0.3-3.5,0.5-5.2,0.7c-0.3,0-0.6-0.2-1-0.4c2.4-1.8,5.2-1.4,7.9-0.9
		C113.2,201.9,112.6,202.1,112,202.3z"/>
	<path class="st15" d="M122.5,27.4c-0.1-0.9-0.2-1.9-0.2-2.8c0-2.3-0.9-3-3.1-2.4c-0.1,0-0.3,0-0.5,0c0.5-0.5,1-1.2,1.6-1.5
		c1.5-0.7,2.9,0.4,2.7,2C122.9,24.2,122.6,25.8,122.5,27.4z"/>
	<path class="st9" d="M109.1,18.3c1.7,2.1,4,1.7,6.3,1.5c0.3,0,0.5-0.1,0.9-0.2c-0.1,0.3-0.2,0.5-0.3,0.6c-1.4,0.1-2.9,0.1-4.3,0.3
		c-0.4,0-0.8,0.3-1.2,0.5c0,0.1,0,0.1-0.1,0.2c-0.1,0.4-0.1,0.8-0.2,1.2l0,0c-0.3-0.3-0.8-0.7-0.8-1
		C109.3,20.4,109.2,19.4,109.1,18.3z"/>
	<path class="st27" d="M76.3,46.6c0,0.5-0.1,0.6-0.7,0.6c-1.7-0.1-3.3-0.1-5-0.1c-0.5,0-0.9,0.4-1.3,0.6c-0.4,0-0.9-0.1-1.6-0.1
		c2.6-1.7,5.1-1.9,7.8-1.1C75.8,46.5,76,46.6,76.3,46.6z"/>
	<path class="st11" d="M124,8.8c1,0.6,2,1.2,2.9,1.8c0.3,0.2,0.4,0.7,0.6,1c-0.1,0.1-0.2,0.2-0.3,0.2c-0.5-0.3-1-0.6-1.5-0.8
		c-1-0.4-2-0.8-3-1.1c-0.7-0.2-0.9-0.5-0.6-1.2C122.7,8.8,123.4,8.8,124,8.8z"/>
	<path class="st15" d="M116.4,18.5c-0.2,0-0.6,0.2-0.7,0.1c-2-1.3-4.1-1.6-6.4-1.2c0.4-0.3,0.7-0.8,1.1-1
		C112.2,15.6,115.4,16.7,116.4,18.5z"/>
	<path class="st9" d="M111.3,68.2c-0.5,0.8-0.9,1.5-1.4,2.3c-0.4,0.7-0.8,1.4-1.3,2.1c-0.5-0.9-0.9-1.8-1.4-2.7
		C108.7,69.2,110,68.7,111.3,68.2z"/>
	<path class="st25" d="M106,38.3c2,0.6,2.9-0.9,3.9-2c0.4,0.1,0.8,0.2,1.2,0.3c-0.9,1.4-2,2.6-3.6,3.1C107,39.2,106.5,38.8,106,38.3
		z"/>
	<path class="st15" d="M122.4,12.8c-0.8-0.5-1.5-1.1-2.3-1.6c-1.3-0.8-2.6-1.2-4.1-1.1C118.2,8.5,121.9,10.1,122.4,12.8z"/>
	<path class="st20" d="M26.9,151.3c-0.4,1.7-1.1,3.3-2.6,4.4c-1.1,0.8-2.2,1.8-3.3,2.7c-0.3,0.2-0.6,0.3-0.9,0.4
		c0.5-0.6,1.1-1.2,1.6-1.7C23.8,155.3,25.7,153.6,26.9,151.3z"/>
	<path class="st10" d="M110.4,35.8c0.7-0.8,0.8-2.1,2.1-2.4c0.5,1.7,1.1-0.4,1.6,0C114,35.3,112.3,36.4,110.4,35.8z"/>
	<path class="st27" d="M87.1,45c-1.4,0.2-2.9,0.5-4.3,0.7l0,0c0-0.1,0-0.1,0-0.2c1.9-1.3,3.9-2.3,6.4-2C88.4,44.1,87.8,44.5,87.1,45
		z"/>
	<path class="st2" d="M124.7,216.4c-0.3,0.2-0.5,0.4-0.8,0.4c-2.9,0-5.8,0-8.7,0c-0.3,0-0.5-0.3-0.8-0.4
		C117.8,216.4,121.3,216.4,124.7,216.4z"/>
	<path class="st12" d="M122.1,17.6c0.7,0.7,1.5,1.4,2.2,2.2c-1,0.4-2,0.8-2.9-0.3c0-0.1,0-0.2,0-0.4c0.4,0,0.8-0.1,1.1-0.1
		c0-0.2,0.1-0.3,0.1-0.5c-0.7-0.1-1.4-0.3-2.2-0.4c0.2-0.3,0.4-0.5,0.4-0.6C121.4,17.6,121.7,17.6,122.1,17.6z"/>
	<path class="st27" d="M66.4,52.4c-0.4-0.1-0.8-0.3-1.2-0.4c-1.7-0.4-3.3-0.9-5-1.2c-0.3-0.1-0.6,0.2-0.9,0.3c-0.3,0-0.5,0-0.8,0
		c0-0.1,0-0.2,0.1-0.3C61.3,49.6,64.4,50.2,66.4,52.4z"/>
	<path class="st9" d="M115.1,16.3c0.4,0,0.8-0.1,1.1-0.1c1.2,0.1,2.3,0.2,3.5,0.2c0,0.2,0,0.3,0,0.5c-0.9,0.4-1.8,0.8-2.7,1.2
		C116.4,17.5,115.7,16.9,115.1,16.3z"/>
	<path class="st20" d="M110.6,21c0.4-0.2,0.8-0.5,1.2-0.5c1.4-0.1,2.9-0.2,4.3-0.3c0.1,0.1,0.1,0.2,0.2,0.2
		c-0.7,0.3-1.4,0.9-2.2,0.9C112.9,21.5,111.8,21.2,110.6,21z"/>
	<path class="st27" d="M105.1,41.3c0,2,0,3.7,0,5.4C104,45.8,104,43.1,105.1,41.3z"/>
	<path class="st9" d="M71,67.7c0.3-0.3,0.7-0.5,1-0.8c0.5,0.3,1,0.7,1.4,1c0.1,0.4,0.1,0.8,0.2,1.6c-1-0.5-1.9-1-2.7-1.4
		C71,68,71,67.9,71,67.7z"/>
	<path class="st21" d="M106.5,41.1c-0.1-0.1-0.2-0.3-0.3-0.4c-0.9-1.2-2.1-1.8-3.6-1.9c1.4-0.6,3.6,0.3,4.6,2
		c0.5,0.7,0.8,1.5-0.2,2.2c0.1-0.2,0.1-0.4,0.2-0.6C107,41.9,106.8,41.5,106.5,41.1z"/>
	<path class="st11" d="M61.5,53.9c0.3,0.1,0.7,0.2,1.2,0.4c-1.9,0.7-3.6,1.3-5.3,1.9c1-0.6,2-1.3,3-1.9C60.7,54.1,61.1,54,61.5,53.9
		z"/>
	<path class="st27" d="M83.3,42.1c-0.3,0-0.7-0.2-1-0.1c-0.7,0.3-1.4,0.7-2.1,1c0.9-1.4,2.1-2.3,3.8-3
		C83.6,40.9,83.4,41.5,83.3,42.1z"/>
	<path class="st27" d="M79.2,45.4c0.1,0.7-0.2,0.7-0.8,0.5c-0.8-0.2-1.7-0.3-2.6-0.5c-0.4-0.3-0.7-0.7-1.1-1
		c0.1-0.1,0.1-0.2,0.2-0.3C76.3,44.6,77.8,45,79.2,45.4z"/>
	<path class="st22" d="M116.7,203.5c-0.6-0.5-1.2-0.9-1.8-1.4c1.3,0.1,2.7,0.3,4,0.4c0,0.1,0,0.2,0,0.3
		C118.1,203.1,117.4,203.3,116.7,203.5z"/>
	<path class="st20" d="M109.1,18.3c0.1,1,0.2,2.1,0.4,3.1c0.1,0.4,0.5,0.7,0.8,1c-0.2,0.3-0.4,0.7-0.7,1.2c-0.7-1.9-1.2-3.5-0.7-5.3
		C109,18.3,109.1,18.3,109.1,18.3z"/>
	<path class="st10" d="M107.5,39.7c1.6-0.5,2.8-1.7,3.6-3.1c0.2,0,0.5,0,1.1,0c-1.4,1.3-2.7,2.5-3.9,3.6
		C108.1,40.2,107.7,39.9,107.5,39.7z"/>
	<path class="st21" d="M63,71.6c0.2,0.3,0.5,0.7,0.6,1c0.2,0.7,0.4,1.4,0.6,2.1c-0.2,0.4-0.3,0.9-0.6,1.6
		C62.9,74.6,62.9,73.1,63,71.6z"/>
	<path class="st22" d="M73.7,207.2c-0.7-0.4-1.4-0.7-2.1-1.1c1.3,0.1,2.6,0.2,4,0.2c0,0.1,0,0.3,0,0.4
		C74.9,206.9,74.3,207.1,73.7,207.2z"/>
	<path class="st9" d="M119,13.3c1.1,0,2.2,0,3.3,0C121.7,14.8,120.1,14.8,119,13.3z"/>
	<path class="st1" d="M121.4,19.2c0,0.1,0,0.2,0,0.4c-1.3-0.5-1.8,0.5-2.5,1.2c-0.4,0.4-0.9,0.6-1.3,0.9l0,0
		C118.3,19.6,119.2,19,121.4,19.2z"/>
	<path class="st25" d="M102.7,38.7c1.5,0.1,2.7,0.7,3.6,1.9c-0.4-0.2-0.8-0.4-1.3-0.5c-0.8-0.2-1.6-0.3-2.4-0.5
		c-0.1-0.2-0.1-0.5-0.2-0.7l0,0C102.5,38.9,102.6,38.8,102.7,38.7L102.7,38.7z"/>
	<path class="st25" d="M102.6,40.2c0.6,0.1,1.3,0.1,2.1,0.2c-0.3,0.6-0.5,1-0.8,1.8c-0.6-0.8-1-1.4-1.4-2
		C102.5,40.2,102.5,40.2,102.6,40.2z"/>
	<path class="st25" d="M128.8,15.2c0.3-0.6,0.7-1.3,1-1.9c0.1,0.1,0.1,0.2,0.2,0.3c-0.2,0.9-0.5,1.7-0.7,2.6
		C129.1,15.9,128.9,15.6,128.8,15.2z"/>
	<path class="st10" d="M114.5,33c1.1-0.3,2.2-0.7,3.3-1c0,0.1,0.1,0.3,0.1,0.4C117.2,33.2,115.2,33.6,114.5,33z"/>
	<path class="st4" d="M117,18.1c0.9-0.4,1.8-0.8,2.7-1.2C119.3,18.4,117.9,19,117,18.1z"/>
	<path class="st8" d="M58.9,113.6c0.4-0.6,0.8-1.2,1.3-1.9C60.6,113.4,60.4,113.8,58.9,113.6z"/>
	<path class="st10" d="M129.2,16.2c0.2-0.9,0.5-1.7,0.7-2.6c0.5,1.2,0.3,2.2-0.6,3.3C129.3,16.6,129.3,16.4,129.2,16.2z"/>
	<path class="st20" d="M20.2,158.8c-0.2,1.2-0.5,2.3-0.7,3.5C18.8,161.1,19,160.2,20.2,158.8z"/>
	<path class="st25" d="M111.7,23.4c-0.2-0.1-0.5-0.2-0.7-0.3c0.2-0.7,0.4-1.3,1.5-1C112.2,22.6,112,23,111.7,23.4z"/>
	<path class="st2" d="M82.5,208.5c0-0.5,0.2-0.9,0.8-0.5c0.4,0.5,0.8,1,1.2,1.5C83.8,209.1,83.1,208.8,82.5,208.5z"/>
	<path class="st25" d="M106.3,43c-0.2-0.3-0.6-0.5-0.7-0.8c-0.1-0.6,0.3-0.8,0.9-0.6l0,0C106.4,42.1,106.3,42.6,106.3,43
		C106.3,43,106.3,43,106.3,43z"/>
	<path class="st2" d="M113.9,216.4c-0.8,0.3-1.5,0.6-2.2-0.2C112.5,216.2,113.2,216.3,113.9,216.4z"/>
	<path class="st8" d="M54.9,103.3c0.8-0.1,1.2,0.2,1.2,1C55.8,103.9,55.4,103.6,54.9,103.3z"/>
	<path class="st25" d="M106.5,41.1c0.2,0.4,0.5,0.8,0.7,1.2c-0.2-0.2-0.5-0.5-0.7-0.7l0,0C106.5,41.4,106.5,41.3,106.5,41.1z"/>
	<path class="st24" d="M50.7,89.6c-0.3-0.1-0.6-0.2-1-0.2c0.6-0.1,1.3-0.2,2-0.2C51.3,89.2,51,89.4,50.7,89.6z"/>
	<path class="st20" d="M110.3,22.4c0.1-0.4,0.1-0.8,0.2-1.2C111.1,21.7,110.7,22.1,110.3,22.4z"/>
	<path class="st2" d="M84.8,209.7c0.4,0.2,0.8,0.5,1.3,0.7C85.7,210.2,85.3,209.9,84.8,209.7z"/>
	<path class="st21" d="M102.6,40.2c-0.1,0-0.1,0-0.2,0c0-0.4,0-0.8,0-1.2c0.1,0.2,0.1,0.5,0.2,0.7C102.6,39.8,102.6,40,102.6,40.2z"
		/>
	<path class="st18" d="M54.8,89.5c-0.4-0.1-0.8-0.2-1.2-0.4C54,89.3,54.4,89.4,54.8,89.5z"/>
	<path class="st15" d="M118.7,22.2c-0.2,0.3-0.4,0.6-0.7,0.9C118.3,22.8,118.5,22.5,118.7,22.2z"/>
	<path class="st18" d="M109.1,91.2c0-0.3,0-0.7,0-1C109.2,90.6,110,90.9,109.1,91.2z"/>
	<path class="st2" d="M109.9,216.1c-0.2-0.1-0.5-0.2-0.7-0.2C109.4,216,109.6,216,109.9,216.1z"/>
	<path class="st11" d="M57.1,56.5c-0.1,0.2-0.2,0.5-0.2,0.7c-0.1,0-0.2,0-0.3,0C56.8,56.9,57,56.7,57.1,56.5z"/>
	<path class="st9" d="M78.7,96.1c0.2,0.2,0.5,0.3,0.7,0.5C79.1,96.4,78.9,96.3,78.7,96.1z"/>
	<path class="st2" d="M88,211.6c0.2,0.2,0.5,0.4,0.7,0.5C88.5,212,88.3,211.8,88,211.6z"/>
	<path class="st2" d="M52.4,212.6c0.1-0.4,0.3-0.9,0.4-1.3C52.6,211.7,52.5,212.2,52.4,212.6z"/>
	<path class="st21" d="M112.5,30.4c-0.2-0.2-0.3-0.3-0.5-0.5c0,0,0.1-0.1,0.1-0.1c0.3,0.2,0.6,0.3,1,0.5c0,0-0.1,0.1-0.1,0.1
		C112.8,30.4,112.6,30.4,112.5,30.4C112.5,30.3,112.5,30.4,112.5,30.4z"/>
	<path class="st2" d="M86.5,210.7c0.3,0.2,0.5,0.3,0.8,0.5C87,211,86.8,210.8,86.5,210.7z"/>
	<path class="st2" d="M87.3,211.1c0.2,0.2,0.5,0.3,0.7,0.5C87.8,211.5,87.5,211.3,87.3,211.1z"/>
	<path class="st15" d="M56.2,116.2c0.2-0.2,0.4-0.5,0.6-0.7C56.6,115.7,56.4,115.9,56.2,116.2z"/>
	<path class="st15" d="M110.6,67.6c0.2-0.2,0.5-0.4,0.7-0.6C111.1,67.2,110.8,67.4,110.6,67.6z"/>
	<path class="st20" d="M38.2,99.7c-0.2,0-0.3,0.1-0.5,0.1C37.9,99.8,38,99.7,38.2,99.7z"/>
	<path class="st20" d="M36.8,100.3c-0.1,0.2-0.2,0.3-0.4,0.5C36.6,100.6,36.7,100.4,36.8,100.3z"/>
	<path class="st21" d="M113.1,30.2c0.2,0.2,0.4,0.3,0.5,0.5c-0.1,0-0.3,0.1-0.4,0.1l0,0c-0.1-0.2-0.2-0.3-0.3-0.5
		C113,30.3,113,30.3,113.1,30.2z"/>
	<path class="st8" d="M78.7,137.1c0.3-0.1,0.5-0.2,0.8-0.3C79.3,136.9,79,137,78.7,137.1z"/>
	<path class="st14" d="M58.8,203.9c0.2,0,0.5,0,0.7,0C59.3,203.9,59.1,203.9,58.8,203.9z"/>
	<path class="st28" d="M58.9,67.1c0.1-0.1,0.2-0.2,0.3-0.3c0,0,0.1,0.1,0.1,0.1c-0.1,0.1-0.1,0.3-0.2,0.4C59,67.2,59,67.2,58.9,67.1
		z"/>
	<path class="st25" d="M106.3,43c0.1,0,0.2,0.1,0.3,0.1C106.5,43.1,106.4,43.1,106.3,43C106.3,43,106.3,43,106.3,43z"/>
	<path class="st27" d="M80.1,43c-0.1,0.2-0.2,0.3-0.2,0.5C80,43.4,80.1,43.2,80.1,43z"/>
	<path class="st18" d="M109.2,90.2c-0.1-0.2-0.1-0.3-0.2-0.5C109.1,89.9,109.1,90.1,109.2,90.2z"/>
	<path class="st2" d="M108,215.9c-0.2-0.1-0.4-0.2-0.5-0.2C107.6,215.7,107.8,215.8,108,215.9z"/>
	<path class="st11" d="M58.3,50.9c-0.2,0.1-0.3,0.2-0.5,0.2C58,51.1,58.2,51,58.3,50.9z"/>
	<path class="st2" d="M106.5,215.7c-0.2-0.1-0.4-0.2-0.5-0.3C106.2,215.5,106.4,215.6,106.5,215.7z"/>
	<path class="st28" d="M58.7,67.4c0.1-0.1,0.1-0.2,0.2-0.3c0.1,0.1,0.1,0.1,0.2,0.2c-0.1,0.2-0.1,0.4-0.2,0.6
		C58.9,67.7,58.8,67.6,58.7,67.4z"/>
	<path class="st2" d="M105.3,215.4c-0.2-0.1-0.3-0.2-0.5-0.3C105,215.2,105.2,215.3,105.3,215.4z"/>
	<path class="st9" d="M68.4,67.7c-0.2,0.1-0.4,0.1-0.5,0.2C68.1,67.9,68.2,67.8,68.4,67.7z"/>
	<path class="st2" d="M104.1,215.2c-0.2-0.1-0.3-0.2-0.5-0.3C103.8,215,104,215.1,104.1,215.2z"/>
	<path class="st10" d="M112.5,33.4c0.1-0.1,0.1-0.3,0.2-0.4C112.7,33.2,112.6,33.3,112.5,33.4z"/>
	<path class="st8" d="M67.5,96.7c-0.1-0.1-0.2-0.3-0.3-0.4C67.3,96.4,67.4,96.5,67.5,96.7z"/>
	<path class="st20" d="M37.3,99.9c-0.1,0.1-0.2,0.2-0.4,0.3C37,100.1,37.1,100,37.3,99.9z"/>
	<path class="st27" d="M79.7,43.7c-0.1,0.2-0.2,0.3-0.4,0.5C79.4,44.1,79.5,43.9,79.7,43.7z"/>
	<path class="st11" d="M58.6,50.7c0,0.1,0,0.2-0.1,0.3c-0.1,0-0.1,0-0.2-0.1C58.4,50.9,58.5,50.8,58.6,50.7z"/>
	<path class="st21" d="M102.7,38.7c-0.1,0.1-0.2,0.2-0.3,0.3C102.5,38.9,102.6,38.8,102.7,38.7z"/>
	<path class="st9" d="M122.3,132c0-0.1,0-0.2,0-0.2c0.1,0.1,0.1,0.1,0.2,0.2C122.4,131.9,122.4,132,122.3,132z"/>
	<path class="st24" d="M35.8,100.4c0,0,0-0.1,0.1-0.1C35.9,100.3,35.9,100.3,35.8,100.4C35.9,100.3,35.9,100.3,35.8,100.4
		C35.8,100.3,35.8,100.4,35.8,100.4z"/>
	<path class="st18" d="M107.5,97c-0.1-0.1-0.2-0.2-0.3-0.3C107.3,96.8,107.4,96.9,107.5,97z"/>
	<path class="st8" d="M67.8,97c-0.1-0.1-0.2-0.2-0.2-0.3C67.6,96.8,67.7,96.9,67.8,97z"/>
	<path class="st18" d="M107.3,96.7c-0.1-0.1-0.2-0.2-0.3-0.4C107.1,96.5,107.2,96.6,107.3,96.7z"/>
	<path class="st28" d="M74.9,45.4c0.1,0.1,0.1,0.1,0.2,0.2c-0.1,0-0.3,0-0.4,0C74.8,45.5,74.9,45.5,74.9,45.4z"/>
	<path class="st2" d="M52.4,214c0-0.1,0-0.2,0-0.2C52.4,213.8,52.4,213.9,52.4,214z"/>
	<path class="st28" d="M102.1,54.2c-0.1,0-0.2,0-0.3,0.1c0-0.1,0-0.2,0-0.3C101.9,54,102,54.1,102.1,54.2z"/>
	<path class="st11" d="M57.4,56.2c-0.1,0.1-0.2,0.2-0.2,0.2C57.2,56.4,57.3,56.3,57.4,56.2z"/>
	<path class="st2" d="M52.4,215.7c0-0.1,0-0.2-0.1-0.3C52.4,215.5,52.4,215.6,52.4,215.7z"/>
	<path class="st25" d="M114.1,31.3c0-0.1-0.1-0.1-0.1-0.2C114.1,31.2,114.1,31.2,114.1,31.3C114.2,31.3,114.1,31.3,114.1,31.3z"/>
	<path class="st20" d="M19.5,162.2c0.1,0.1,0.2,0.2,0.3,0.3C19.6,162.4,19.6,162.3,19.5,162.2z"/>
	<path class="st2" d="M111.3,216.1c-0.1,0-0.2,0-0.3,0C111.1,216.1,111.2,216.1,111.3,216.1z"/>
	<path class="st20" d="M19.7,162.5c0.1,0.1,0.2,0.2,0.3,0.3C19.9,162.7,19.8,162.6,19.7,162.5z"/>
	<path class="st3" d="M107.3,71.8c0-0.1,0-0.2,0-0.2C107.3,71.6,107.3,71.7,107.3,71.8C107.3,71.7,107.3,71.8,107.3,71.8z"/>
	<path class="st11" d="M57.9,51.2c-0.1,0.1-0.2,0.2-0.3,0.3C57.7,51.3,57.8,51.3,57.9,51.2z"/>
	<path class="st27" d="M79.9,43.5c-0.1,0.1-0.2,0.2-0.3,0.2C79.7,43.7,79.8,43.6,79.9,43.5z"/>
	<path class="st0" d="M85.3,115.3c2.3-2.2,5.1-3.5,8.2-4.1C90.8,112.6,88.1,113.9,85.3,115.3z"/>
	<path class="st0" d="M84.5,110.3c2.6-1.3,5.4-1.5,8.2-1.2C90,109.5,87.3,109.9,84.5,110.3z"/>
	<path class="st25" d="M103.5,109c1.1-0.9,3-0.9,4.3,0C106.3,109,105,109,103.5,109z"/>
	<path class="st0" d="M78.9,63.8c-0.7,0.6-0.5,1.1,0.1,1.5c0.4,0.3,0.7,0.5,1.1,0.7c0.4,0.2,0.8,0.3,1.1,0.7
		c-0.4-0.1-0.8-0.1-1.1-0.2c-2-0.8-3-2.3-3.2-4.4c-0.2-1.9,0.5-3.4,2.3-4.4c0.6-0.3,1.2-0.7,1.8-1c1.9-1,4-1.7,3.8-4.5
		c0.1,0,0.2,0.1,0.3,0.1c0,0.6,0,1.3,0,1.9c4,1.4,5.4,3.1,5.5,6.3c0.6,0.4,1.4,0.7,1.6,1.1c0.2,0.5,0,1.3-0.2,1.9
		c-0.1-2.5-0.3-2.7-2.6-1.6c-1.2,0.6-2.4,1.5-3.5,2.2c-0.3,0.2-0.7,0.5-1.1,0.6c0.1-0.2,0.2-0.3,0.2-0.5l0,0c1.4-1,2.9-2,4.3-3
		c0.2-0.3,0.6-0.5,0.6-0.8c0-0.6-0.1-1.3-0.3-1.9c-0.5-1.6-0.6-1.6-2.2-1.1c-3,0.9-5.6,2.5-7.6,4.9C79.5,63,79.2,63.4,78.9,63.8z
		 M83.4,56.2c-1.4,0.8-2.9,1.6-4.3,2.4c-1.7,1-2.1,3.1-1.1,5.1c0.6-0.7,1.1-1.4,1.7-2.1c2-2,4.4-3.4,7-4.4c0.5-0.1,1.1-0.2,1.7-0.4
		C86.4,54.9,85.2,54.8,83.4,56.2z"/>
	<path class="st0" d="M73.5,67.9c-0.5-0.3-1-0.7-1.4-1c-1.7-1.8-2.6-4-3.1-6.6c-0.6,1.1-1.2,2.2-1.9,3.3c-1.5-1.4-1.1-6,0.8-7.8
		c-0.7,2.2-1.6,4.2-0.9,6.4c0.7-1.1,1.4-2.2,2.2-3.2c0.1,0,0.3,0.1,0.4,0.1c0.7,2.9,0.9,6,3.8,7.7c0.1,0.1,0.1,0.2,0.2,0.2
		c0-0.1,0-0.3-0.1-0.4c-0.2-0.5-0.4-0.9-0.5-1.4c0.1-2.6,0-5.2,0.3-7.8c0.1-1,0.8-2,1.3-3c0.1-0.1,0.4-0.1,0.6-0.2
		c-2.4,4.5-2,9.1-0.6,13.9C74.1,68.1,73.8,68,73.5,67.9z"/>
	<path class="st0" d="M99.1,96c-0.2,0.2-0.4,0.5-0.5,0.5c-1.8-0.4-2.9,1.2-4.6,1.4c-1.5,0.2-2.8,1.6-4.2,2.4c0.1-0.3,0.3-0.7,0.4-1
		c-0.4-0.5-0.9-0.8-1.2-1.3c-0.4-0.5-0.5-1.3,0.3-1.5c0.4-0.1,1.1,0.3,1.4,0.7c0.3,0.3,0.3,1,0.4,1.7c0.8-0.3,1.5-0.6,2.2-1
		c-0.4-0.7-0.9-1.2-1-1.7c-0.1-0.4,0.3-0.9,0.4-1.3c0.4,0.3,0.9,0.5,1.1,0.8c0.2,0.5,0.2,1.1,0.4,1.8c0.8-0.3,1.6-0.6,2.3-0.9
		c-0.3-0.9-0.6-1.5-0.7-2.2c0-0.3,0.4-0.7,0.6-1c0.3,0.2,0.9,0.4,1,0.7c0.2,0.6,0,1.2,0,2C97.9,96.1,98.5,96.1,99.1,96L99.1,96z
		 M90.5,98.8c0-0.5,0-0.8-0.1-1c-0.2-0.4-0.4-0.7-0.7-1c0,0-0.4,0.1-0.4,0.1c0.1,0.4,0.2,0.8,0.4,1.2C89.8,98.3,90.1,98.5,90.5,98.8
		z"/>
	<path class="st0" d="M96,102c-1.2-0.2-2,0.9-3.2,1.4c0.5-0.5,0.8-0.9,1-1.2c-0.4-0.7-0.8-1.3-1-1.9c-0.1-0.3,0.3-0.7,0.5-1.1
		c0.3,0.2,0.8,0.4,0.9,0.7c0.2,0.6,0.3,1.2,0.4,2c0.6-0.3,1.2-0.6,1.8-0.9c-0.4-0.7-0.7-1.2-0.8-1.8c-0.1-0.3,0.2-0.7,0.4-1
		c0.3,0.2,0.7,0.3,0.8,0.5c0.2,0.6,0.3,1.2,0.5,2c0.3,0.1,0.8,0.2,1.3,0.3c0,0.1,0,0.1,0,0.2c-0.4,0-0.9-0.1-1.3,0
		c-0.3,0.1-0.6,0.3-0.9,0.5l0,0C96.3,101.9,96.1,101.9,96,102L96,102z"/>
	<path class="st20" d="M78.9,63.8c0.3-0.4,0.6-0.7,0.9-1.1c0.1,0,0.3,0,0.3,0.1c1.2,1.2,2.6,1.6,4.3,1.5c0.2,0,0.3,0.2,0.5,0.3l0,0
		c-0.5,0.3-1,0.7-1.5,0.8c-0.8,0.2-1.7,0.6-2.4,0.4C80.1,65.4,78.9,65.1,78.9,63.8z"/>
	<path class="st0" d="M75.6,53.8c0-0.6,0-1.2,0-2c0.7,1.8,1.2,3.3,1.8,4.9c0.1,0,0.3,0,0.4-0.1c0.3-2.3,0.4-4.7,2.7-6.1
		c-1.4,1.9-2.1,4.1-2.2,6.5c0,0.1-0.2,0.3-0.3,0.4C76.5,56.7,76.2,55.2,75.6,53.8z"/>
	<path class="st0" d="M96.4,101.8c1.1,0.4,1.4,1.3,1.4,2.4c0.5,0,0.8-0.1,1.5-0.1c-0.9,0.5-1.6,0.9-2.4,1.3c0.1-0.3,0.2-0.5,0.3-0.9
		c-1-0.5-1.5-1.3-1.3-2.5l0,0C96.1,101.9,96.3,101.9,96.4,101.8L96.4,101.8z"/>
	<path class="st0" d="M70.6,71.8c-0.4-0.4-0.9-0.9-1.3-1.3c-0.1,0.1-0.3,0.2-0.4,0.2c0.1,0.6,0.1,1.1,0.2,1.8
		c-0.9-0.3-0.8-1-0.8-1.8c-0.5,0.3-0.8,0.5-1.2,0.7c-0.1-0.1-0.1-0.2-0.2-0.2c0.4-0.4,0.8-0.7,1.2-1.1c1.1-0.3,1.9,0,2.5,1
		C70.8,71.2,70.6,71.5,70.6,71.8z"/>
	<path class="st0" d="M89.1,100.6c0.2,0,0.4-0.1,0.6-0.1c0,0.1,0,0.1,0,0.2c-0.2,0-0.4,0.1-0.6,0.1
		C89.1,100.7,89.1,100.7,89.1,100.6z"/>
	<path class="st0" d="M99.1,96C99.1,96,99.1,96,99.1,96C99.1,96,99.1,96,99.1,96C99.1,96,99.1,96,99.1,96z"/>
	<path class="st20" d="M28.5,145.1c0,0.8,0,1.5,0,2.3c-0.1,0-0.2,0-0.2,0c0-0.8,0-1.5,0-2.3C28.4,145.1,28.5,145.1,28.5,145.1z"/>
	<path class="st27" d="M82.8,45.7c0,0-0.1,0.1-0.1,0.1C82.7,45.8,82.7,45.7,82.8,45.7C82.8,45.7,82.8,45.7,82.8,45.7z"/>
	<path class="st0" d="M100.1,51.7c-0.7,0.5-1.2,1-1.4,0.9c-0.5-0.1-0.8-0.7-1.2-1c0.3-0.3,0.7-1,1-0.9
		C98.9,50.7,99.3,51.2,100.1,51.7z"/>
	<path class="st11" d="M111.6,28.3c-0.8,0.3-1.2-0.1-1.6-0.8c-0.4-0.9-0.2-1.9,0.6-2.6C110.9,26,111.2,27.1,111.6,28.3z"/>
	<path class="st0" d="M108.7,35.1c-0.3-0.7-0.6-1.4-1-2.2C108,33.7,108.3,34.4,108.7,35.1z"/>
	<path class="st0" d="M112.9,30.4c0.1,0.2,0.2,0.3,0.3,0.5c-0.2-0.2-0.5-0.3-0.7-0.5C112.6,30.4,112.8,30.4,112.9,30.4z"/>
	<path class="st0" d="M109.1,35.6c-0.1-0.1-0.2-0.2-0.2-0.2C109,35.4,109.1,35.5,109.1,35.6z"/>
	<path class="st0" d="M108.9,35.4c-0.1-0.1-0.2-0.2-0.2-0.2C108.7,35.2,108.8,35.3,108.9,35.4z"/>
	<path class="st4" d="M84.9,64.5c-0.2-0.1-0.4-0.3-0.5-0.3c-1.6,0.1-3.1-0.2-4.3-1.5c-0.1-0.1-0.2,0-0.3-0.1c2-2.5,4.6-4,7.6-5
		c0.6,1.2,1.2,2.5,1.8,3.7C87.8,62.5,86.3,63.5,84.9,64.5z"/>
	<path class="st4" d="M86.7,57.2c-2.6,1-5,2.4-7,4.4c0.1-1,0.1-2,0.2-3c0,0,0-0.1,0.1-0.1c0,0,0,0.1-0.1,0.1c-0.3,0-0.5,0-0.8,0
		c1.4-0.8,2.9-1.6,4.3-2.4C84.6,56.2,85.8,56.3,86.7,57.2z"/>
	<path class="st20" d="M79.1,58.6c0.3,0,0.5,0,0.8,0l0,0c-0.1,1-0.1,2-0.2,3c-0.6,0.7-1.1,1.4-1.7,2.1C77,61.7,77.4,59.6,79.1,58.6z
		"/>
	<path class="st15" d="M86.7,57.2c-0.9-0.9-2-1.1-3.2-1c1.8-1.4,3-1.3,5,0.6C87.8,57,87.2,57.1,86.7,57.2z"/>
	<path class="st15" d="M89.2,61.5c-0.6-1.2-1.2-2.5-1.8-3.7c1.6-0.5,1.7-0.5,2.2,1.1c0.2,0.6,0.3,1.2,0.3,1.9
		C89.9,61,89.5,61.2,89.2,61.5z"/>
	<path class="st10" d="M73.5,66.7c0,0.1,0,0.3,0.1,0.4c-0.1-0.1-0.1-0.2-0.2-0.2C73.4,66.8,73.4,66.8,73.5,66.7z"/>
	<path class="st4" d="M90.5,98.8c-0.4-0.3-0.7-0.5-0.8-0.7c-0.2-0.4-0.3-0.8-0.4-1.2c0,0,0.4-0.2,0.4-0.1c0.3,0.3,0.5,0.6,0.7,1
		C90.5,98,90.5,98.3,90.5,98.8z"/>
	<path class="st4" d="M96.5,101.8c-0.2,0.1-0.3,0.2-0.5,0.2C96.1,101.9,96.3,101.9,96.5,101.8z"/>
	<path class="st20" d="M79.9,58.6C79.9,58.6,79.9,58.6,79.9,58.6C79.9,58.6,79.9,58.6,79.9,58.6C79.9,58.6,79.9,58.6,79.9,58.6z"/>
</g>
</svg>
